<mxfile host="Electron" agent="Mozilla/5.0 (Windows NT 10.0; Win64; x64) AppleWebKit/537.36 (KHTML, like Gecko) draw.io/26.1.1 Chrome/132.0.6834.210 Electron/34.3.3 Safari/537.36" version="26.1.1">
  <diagram name="Page-1" id="S0hzo5xgvUVxPlflz2WC">
    <mxGraphModel dx="819" dy="482" grid="1" gridSize="10" guides="1" tooltips="1" connect="1" arrows="1" fold="1" page="1" pageScale="1" pageWidth="827" pageHeight="1169" math="0" shadow="0">
      <root>
        <mxCell id="0" />
        <mxCell id="1" parent="0" />
        <mxCell id="HV5D_f1Mmfy7SxoI7Yci-1" value="" style="shape=image;verticalLabelPosition=bottom;labelBackgroundColor=default;verticalAlign=top;aspect=fixed;imageAspect=0;editableCssRules=.*;image=data:image/svg+xml,PHN2ZyB4bWxucz0iaHR0cDovL3d3dy53My5vcmcvMjAwMC9zdmciIHZpZXdCb3g9IjAgMCAyNTUuNjgwMDA3OTM0NTcwMyAyMTQuNTEwNjUwNjM0NzY1NjIiIGhlaWdodD0iMjA5NS4yMjAzMDg1MjU2MTgiIHdpZHRoPSIyNDk2Ljg3NTA3NzQ4NjAzOCI+PGcgZmlsbC1ydWxlPSJldmVub2RkIiBmaWxsPSJub25lIj48cGF0aCBmaWxsPSIjMzY0NTQ4IiBkPSJNMzguNjE3IDE3My45ODR2LTE2LjM2MmMwLTIuMTUgMS4zNDQtMy44NzcgMy41Ny0zLjg3N2guNjE2YzIuMjI1IDAgMy41NjMgMS43MjkgMy41NjMgMy44Nzd2MzQuNDQ3YzAgOC40LTQuMTUgMTUuMDg0LTExLjM4MiAxOS4zNDJhMjEuMzc0IDIxLjM3NCAwIDAgMS0xMC45NDUgMi45ODVoLTEuNTM3Yy04LjQwMiAwLTE1LjA3Ny00LjE1My0xOS4zNDItMTEuMzhhMjEuMzE0IDIxLjMxNCAwIDAgMS0yLjk4NC0xMC45NDd2LTEuNTM1YzAtOC40MDMgNC4xNTItMTUuMDgzIDExLjM3OC0xOS4zNDlhMjEuMjk4IDIxLjI5OCAwIDAgMSAxMC45NDgtMi45ODVoMS41MzdjNS42ODYgMCAxMC41MSAyLjIwNCAxNC41NzggNS43ODR6TTcuOTI0IDE5MS4zYzAgNi4wNjggMi45NDEgMTAuNjMgOC4yNTggMTMuNTQgMi4xNSAxLjE3NiA0LjQ4NCAxLjgwOCA2LjkzNyAxLjgwOCA1Ljk1NiAwIDEwLjM3NC0yLjgxIDEzLjQyMS03Ljg1NyAxLjQxNy0yLjM0OCAyLjA3Ny00LjkxNyAyLjA3Ny03LjY0OCAwLTUuMjYtMi40OS05LjM2NS02LjcyOS0xMi40MTQtMi41Ny0xLjg0OC01LjQ2My0yLjc3NS04LjYxOC0yLjc3NS02LjQ5MiAwLTExLjE2NCAzLjI4LTEzLjk2OCA5LjEwNi0uOTQ2IDEuOTctMS4zNzggNC4wNjEtMS4zNzggNi4yNHptNjUuMzI0LTIzLjFoMS4wNzRjOC45NzggMCAxNS44MDYgNC4zNTUgMjAuMTMzIDEyLjE5MiAxLjczIDMuMTM1IDIuNjU2IDYuNTU3IDIuNjU2IDEwLjE0MnYxLjUzNWMwIDguNC00LjE0MiAxNS4wOTMtMTEuMzg1IDE5LjM0My0zLjM1MyAxLjk2Ny03LjA1NyAyLjk4NC0xMC45NDMgMi45ODRoLTEuNTM1Yy04LjQwMiAwLTE1LjA3OS00LjE1My0xOS4zNDItMTEuMzhhMjEuMzE2IDIxLjMxNiAwIDAgMS0yLjk4Ny0xMC45NDd2LTEuNTM1YzAtOC40MDQgNC4xNjktMTUuMDYyIDExLjM3Ny0xOS4zNDcgMy4zNTEtMS45OTEgNy4wNTgtMi45ODcgMTAuOTUyLTIuOTg3em0tMTQuNTggMjMuMWMwIDUuODkgMi44OSAxMC4yMjMgNy44NjUgMTMuMjcgMi4zMzYgMS40MyA0LjkwOSAyLjA3OCA3LjYzOCAyLjA3OCA1LjgyIDAgMTAuMTIyLTIuOTUxIDEzLjExNi03Ljg2MyAxLjQyOC0yLjM0MiAyLjA3NC00LjkxNSAyLjA3NC03LjY0MiAwLTUuNDc3LTIuNjM4LTkuNjYxLTcuMTQ4LTEyLjY5My0yLjQ3MS0xLjY2My01LjIyMi0yLjQ5Ni04LjE5OC0yLjQ5Ni02LjQ5MiAwLTExLjE2NCAzLjI4LTEzLjk2NyA5LjEwNi0uOTQ4IDEuOTctMS4zOCA0LjA2MS0xLjM4IDYuMjR6bTcwLjY1Ni0xNC43MjdjLTEuMTctLjU0OC0zLjM2LS43My00LjYyNC0uNzc4LTYuNDc0LS4yNDQtMTEuMTU4IDMuNDAyLTEzLjkwNiA5LjExMy0uOTQ5IDEuOTctMS4zODIgNC4wNTUtMS4zODIgNi4yMzUgMCA2LjYzNyAzLjQ4NSAxMS4yODQgOS40MDkgMTQuMTE3IDIuMTY0IDEuMDM0IDQuOTU4IDEuMjMgNy4zMjMgMS4yMyAyLjA4IDAgNS4wMi0xLjI3NCA2Ljg2Ni0yLjE1MWwuMzItLjE1MmgxLjQzM2wuMTU4LjAzMmMxLjc2Mi4zNjcgMy4wOTIgMS40ODQgMy4wOTIgMy4zOHYuNzY3YzAgNC43MTgtOC42MjIgNS43OTgtMTEuOTEyIDYuMDI4LTExLjYxLjgwMy0yMC4yOTMtNS41NzMtMjMuNjAzLTE2LjY0Ny0uNTc1LTEuOTIzLS44MzQtMy44MzMtLjgzNC01LjgzN3YtMS41MzNjMC04LjQwMyA0LjE3LTE1LjA1OSAxMS4zNzctMTkuMzQgMy4zNTEtMS45OSA3LjA1Ny0yLjk5IDEwLjk1LTIuOTloMS41MzZjNC4xMyAwIDcuOTM0IDEuMTczIDExLjM0NCAzLjUwMmwuMjguMTk0LjE3Ny4yOTJjLjM2OC42MS42ODUgMS4zMTYuNjg1IDIuMDQydi43NjdjMCAxLjk3OC0xLjQ4IDMuMDQyLTMuMjY2IDMuMzg2bC0uMTQ4LjAyNmgtLjQ1OGMtMS4xNTYgMC0zLjc4NS0xLjE5Ny00LjgxNy0xLjY4M3ptMjUuMTM0IDUuMjQ3YzMuMDEtMy4wMTQgNi4wMy02LjAyMiA5LjA4NS04Ljk4Ni44NTEtLjgyNyA0LjA3NC00LjMyNyA1LjM0My00LjMyN2gxLjM4OGwuMTU4LjAzM2MxLjc2OC4zNjcgMy4wOTIgMS40ODYgMy4wOTIgMy4zODZ2Ljc2NmMwIDEuMjk2LTEuNTE4IDIuODAyLTIuMzU1IDMuNjg5LTEuNzggMS44ODctMy42NTQgMy43MTItNS40NzYgNS41NmwtOS4zNjIgOS41MDRjNC4wMzEgNC4wNCA4LjA1OCA4LjA4MyAxMi4wNTYgMTIuMTU0YTMxMy4zMDQgMzEzLjMwNCAwIDAgMSAzLjMwMSAzLjM5NmMuMzg1LjQwNS45NTMuOTA5IDEuMjc2IDEuNDcuMzQ3LjUyNi41NiAxLjExOS41NiAxLjc1MnYuOGwtLjA0NS4xODVjLS40MzUgMS43NjgtMS41NTcgMy4xOTQtMy41MTYgMy4xOTRoLS42MTdjLTEuMjgyIDAtMi43My0xLjQ1LTMuNjA4LTIuMjc5LTEuODEtMS43MDYtMy41NTctMy41LTUuMzMxLTUuMjQzbC01Ljk0OS01Ljg0djkuMzM0YzAgMi4xNS0xLjM0NiAzLjg3OC0zLjU2OSAzLjg3OGgtLjYxYy0yLjIyNiAwLTMuNTctMS43MjgtMy41Ny0zLjg3OHYtNTIuNTk2YzAtMi4xNSAxLjM0NS0zLjg3IDMuNTctMy44N2guNjFjMi4yMjMgMCAzLjU2OSAxLjcyIDMuNTY5IDMuODd2MjQuMDQ4em05Ni41NzctMTMuMzEzaC43N2MyLjMyNCAwIDMuODc1IDEuNTY2IDMuODc1IDMuODc3IDAgMy4yMDgtMy4wNjcgNC4wMjktNS43MiA0LjAyOS0zLjQ4IDAtNi44MDMgMi4xMDctOS4yMDIgNC40Ny0yLjk5MSAyLjk0OS00LjMgNi43MjYtNC4zIDEwLjg3OHYxOC43NTljMCAyLjE1LTEuMzQzIDMuODc2LTMuNTcgMy44NzZoLS42MTJjLTIuMjI3IDAtMy41NjktMS43MjUtMy41NjktMy44NzZ2LTE5LjgzNmMwLTcuNjE3IDMuNzA4LTEzLjgzNSA5Ljg5LTE4LjE5NiAzLjY5MS0yLjYwNSA3LjkxOS0zLjk4IDEyLjQzOC0zLjk4em0tNTUuMDc0IDM3LjE3NmMyLjgyLjk4NSA2LjAzNS44NDQgOC45MjguMzQgMS40OC0uNjI5IDUuMjY0LTIuMjggNi42NTYtMi4wMzhsLjIxNy4wMzcuMi4wOThjLjg1LjQxMiAxLjY2MS45OTUgMi4wOTUgMS44NiAxLjAxNCAyLjAyNy41MjcgNC4wNjUtMS40NjUgNS4yMTZsLS42NjMuMzgzYy03LjM1IDQuMjQyLTE1LjE2OCAzLjY1NC0yMi40OTUtLjMwOC0zLjUwMy0xLjg5NC02LjE4My00LjcwNS04LjE2LTguMTMybC0uNDYyLS44MDFjLTQuNzE5LTguMTcyLTQuMDgyLTE2Ljc2OCAxLjI0LTI0LjUzOSAxLjgzNy0yLjY4NiA0LjIzOC00Ljc2MSA3LjA0NS02LjM4NGwxLjA2Mi0uNjEzYzYuOTIyLTMuOTk2IDE0LjM0MS0zLjcyMiAyMS40NS0uMjE1IDMuODIzIDEuODg2IDYuOTIgNC42OTcgOS4wNTQgOC4zOTRsLjM4NC42NjZjMS41NSAyLjY4Ni0uNDU4IDUuMDI2LTIuNTMxIDYuNjI2LTIuNDA2IDEuODU2LTQuODM1IDQuMDktNy4xNDEgNi4wOC01LjE0MiA0LjQzOS0xMC4yNzYgOC44ODgtMTUuNDE0IDEzLjMzem0tNi42NTUtNC42NzRjNS43NS00LjkzIDExLjUwMi05Ljg2NSAxNy4yMzctMTQuODE2IDEuOTYtMS42OSA0LjEwOS0zLjQ0NCA2LjA1My01LjIyMS0xLjU2LTEuOTY2LTQuMTY2LTMuMzgzLTYuMzgtNC4yMjgtNC40Ny0xLjcwMy04Ljg3Ny0xLjEzMS0xMi45NzYgMS4yMzUtNS4zNjUgMy4wOTgtNy42NSA4LjAzMS03LjQ1IDE0LjE3LjA4IDIuNDE4LjczIDQuNzQ4IDIuMDEzIDYuODA1LjQ1Mi43MjUuOTU3IDEuNDA2IDEuNTAzIDIuMDU1ek0xNDcuNDg4IDQ1LjczMmgyMi44NjZ2MjMuMzc1aDExLjU2MWM1LjM0IDAgMTAuODMxLS45NTEgMTUuODg3LTIuNjY0IDIuNDg1LS44NDMgNS4yNzMtMi4wMTUgNy43MjQtMy40OS0zLjIyOC00LjIxNC00Ljg3Ni05LjUzNS01LjM2LTE0Ljc4LS42Ni03LjEzNS43OC0xNi40MjEgNS42MDgtMjIuMDA1bDIuNDA0LTIuNzggMi44NjQgMi4zMDNjNy4yMTEgNS43OTMgMTMuMjc2IDEzLjg4OSAxNC4zNDUgMjMuMTE4IDguNjgzLTIuNTU0IDE4Ljg3OC0xLjk1IDI2LjUzMSAyLjQ2N2wzLjE0IDEuODEyLTEuNjUyIDMuMjI2QzI0Ni45MzMgNjguOTQ2IDIzMy40IDcyLjg2IDIyMC4xNyA3Mi4xNjdjLTE5Ljc5NyA0OS4zMDktNjIuODk4IDcyLjY1My0xMTUuMTU3IDcyLjY1My0yNyAwLTUxLjc3LTEwLjA5My02NS44NzYtMzQuMDQ3bC0uMjMxLS4zOS0yLjA1NS00LjE4MmMtNC43NjgtMTAuNTQ0LTYuMzUyLTIyLjA5NS01LjI3OC0zMy42MzdsLjMyMy0zLjQ1N0g1MS40NVY0NS43MzJoMjIuODY1VjIyLjg2Nmg0NS43MzNWMGgyNy40NHY0NS43MzIiLz48cGF0aCBmaWxsPSIjMjJBMEM4IiBkPSJNMjIxLjU3IDU0LjM4YzEuNTMzLTExLjkxNi03LjM4NC0yMS4yNzUtMTIuOTE0LTI1LjcxOS02LjM3MyA3LjM2OC03LjM2MyAyNi42NzggMi42MzUgMzQuODA4LTUuNTggNC45NTYtMTcuMzM3IDkuNDQ4LTI5LjM3NiA5LjQ0OEgzNS4zN2MtMS4xNyAxMi41NjcgMS4wMzYgMjQuMTQgNi4wNzUgMzQuMDQ1bDEuNjY3IDMuMDVhNTYuNTM2IDU2LjUzNiAwIDAgMCAzLjQ1NSA1LjE4NGM2LjAyNS4zODcgMTEuNTguNTIgMTYuNjYyLjQwOGguMDAyYzkuOTg3LS4yMiAxOC4xMzYtMS40IDI0LjMxMi0zLjU0YTEuNzYxIDEuNzYxIDAgMCAxIDEuMTUzIDMuMzI2Yy0uODIyLjI4Ni0xLjY3OC41NTItMi41NjIuODA1aC0uMDAzYy00Ljg2MyAxLjM4OS0xMC4wNzggMi4zMjMtMTYuODA2IDIuNzM4LjQuMDA3LS40MTYuMDYtLjQxOC4wNi0uMjI5LjAxNS0uNTE3LjA0OC0uNzQ3LjA2LTIuNjQ4LjE0OS01LjUwNi4xOC04LjQyOC4xOC0zLjE5NiAwLTYuMzQzLS4wNi05Ljg2Mi0uMjRsLS4wOS4wNmMxMi4yMSAxMy43MjQgMzEuMzAyIDIxLjk1NSA1NS4yMzQgMjEuOTU1IDUwLjY0OCAwIDkzLjYwOC0yMi40NTIgMTEyLjYzMi03Mi44NTcgMTMuNDk2IDEuMzg1IDI2LjQ2Ny0yLjA1NyAzMi4zNjctMTMuNTc1LTkuMzk4LTUuNDIzLTIxLjQ4NC0zLjY5NC0yOC40NDMtLjE5NiIvPjxwYXRoIGZpbGw9IiMzN0IxRDkiIGQ9Ik0yMjEuNTcgNTQuMzhjMS41MzMtMTEuOTE2LTcuMzg0LTIxLjI3NS0xMi45MTQtMjUuNzE5LTYuMzczIDcuMzY4LTcuMzYzIDI2LjY3OCAyLjYzNSAzNC44MDgtNS41OCA0Ljk1Ni0xNy4zMzcgOS40NDgtMjkuMzc2IDkuNDQ4SDQ0LjA0OGMtLjU5OCAxOS4yNDYgNi41NDQgMzMuODU1IDE5LjE4IDQyLjY4N2guMDAzYzkuOTg3LS4yMiAxOC4xMzYtMS40IDI0LjMxMi0zLjU0YTEuNzYxIDEuNzYxIDAgMCAxIDEuMTUzIDMuMzI2Yy0uODIyLjI4Ni0xLjY3OC41NTItMi41NjIuODA1aC0uMDAzYy00Ljg2MyAxLjM4OS0xMC41MjYgMi40NDMtMTcuMjU0IDIuODU4LS4wMDIgMC0uMTYzLS4xNTUtLjE2NS0uMTU1IDE3LjIzNyA4Ljg0MiA0Mi4yMyA4LjgxIDcwLjg4NS0yLjE5NyAzMi4xMy0xMi4zNDQgNjIuMDI5LTM1Ljg2IDgyLjg5LTYyLjc1Ny0uMzE0LjE0Mi0uNjIuMjg3LS45MTcuNDM2Ii8+PHBhdGggZmlsbD0iIzFCODFBNSIgZD0iTTM1LjY0NSA4OC4xODZjLjkxIDYuNzMyIDIuODggMTMuMDM1IDUuOCAxOC43NzZsMS42NjcgMy4wNWE1Ni40MzIgNTYuNDMyIDAgMCAwIDMuNDU1IDUuMTg0YzYuMDI2LjM4NyAxMS41ODEuNTIgMTYuNjY0LjQwOCA5Ljk4Ny0uMjIgMTguMTM2LTEuNCAyNC4zMTItMy41NGExLjc2MSAxLjc2MSAwIDAgMSAxLjE1MyAzLjMyNmMtLjgyMi4yODYtMS42NzguNTUyLTIuNTYyLjgwNWgtLjAwM2MtNC44NjMgMS4zODktMTAuNDk2IDIuMzgzLTE3LjIyNCAyLjc5OS0uMjMxLjAxNC0uNjM0LjAxNy0uODY3LjAzLTIuNjQ2LjE0OC01LjQ3NS4yMzktOC4zOTguMjM5LTMuMTk1IDAtNi40NjMtLjA2MS05Ljk4LS4yNCAxMi4yMSAxMy43MjQgMzEuNDIgMjEuOTg1IDU1LjM1MiAyMS45ODUgNDMuMzYgMCA4MS4wODQtMTYuNDU4IDEwMi45NzktNTIuODIySDM1LjY0NSIvPjxwYXRoIGZpbGw9IiMxRDkxQjQiIGQ9Ik00NS4zNjcgODguMTg2YzIuNTkyIDExLjgyIDguODIxIDIxLjA5OSAxNy44NjQgMjcuNDE4IDkuOTg3LS4yMiAxOC4xMzYtMS40IDI0LjMxMi0zLjU0YTEuNzYxIDEuNzYxIDAgMCAxIDEuMTUzIDMuMzI2Yy0uODIyLjI4Ni0xLjY3OC41NTItMi41NjIuODA1aC0uMDAzYy00Ljg2MyAxLjM4OS0xMC42MTUgMi4zODMtMTcuMzQ0IDIuNzk5IDE3LjIzNiA4Ljg0IDQyLjE1NyA4LjcxMyA3MC44MS0yLjI5MyAxNy4zMzQtNi42NiAzNC4wMTctMTYuNTc0IDQ4Ljk4NC0yOC41MTVINDUuMzY3Ii8+PHBhdGggZmlsbD0iIzIzQTNDMiIgZD0iTTU1LjI2IDQ5LjU0M2gxOS44MTh2MTkuODE4SDU1LjI2VjQ5LjU0M3ptMS42NTEgMS42NTJoMS41NjRWNjcuNzFoLTEuNTY0VjUxLjE5NXptMi45NCAwaDEuNjI3VjY3LjcxaC0xLjYyNlY1MS4xOTV6bTMuMDAyIDBoMS42MjdWNjcuNzFoLTEuNjI3VjUxLjE5NXptMy4wMDQgMGgxLjYyNlY2Ny43MWgtMS42MjZWNTEuMTk1em0zLjAwMyAwaDEuNjI2VjY3LjcxSDY4Ljg2VjUxLjE5NXptMy4wMDIgMGgxLjU2NVY2Ny43MWgtMS41NjVWNTEuMTk1ek03OC4xMjYgMjYuNjc3aDE5LjgxOXYxOS44MTdoLTE5LjgyVjI2LjY3N3ptMS42NTIgMS42NTJoMS41NjN2MTYuNTE0aC0xLjU2M1YyOC4zMjl6bTIuOTQgMGgxLjYyNnYxNi41MTRoLTEuNjI1VjI4LjMyOXptMy4wMDIgMGgxLjYyNnYxNi41MTRIODUuNzJWMjguMzI5em0zLjAwMyAwaDEuNjI2djE2LjUxNGgtMS42MjZWMjguMzI5em0zLjAwMyAwaDEuNjI3djE2LjUxNGgtMS42MjdWMjguMzI5em0zLjAwMiAwaDEuNTY2djE2LjUxNGgtMS41NjZWMjguMzI5eiIvPjxwYXRoIGZpbGw9IiMzNEJCREUiIGQ9Ik03OC4xMjYgNDkuNTQzaDE5LjgxOXYxOS44MThoLTE5LjgyVjQ5LjU0M3ptMS42NTIgMS42NTJoMS41NjNWNjcuNzFoLTEuNTYzVjUxLjE5NXptMi45NCAwaDEuNjI2VjY3LjcxaC0xLjYyNVY1MS4xOTV6bTMuMDAyIDBoMS42MjZWNjcuNzFIODUuNzJWNTEuMTk1em0zLjAwMyAwaDEuNjI2VjY3LjcxaC0xLjYyNlY1MS4xOTV6bTMuMDAzIDBoMS42MjdWNjcuNzFoLTEuNjI3VjUxLjE5NXptMy4wMDIgMGgxLjU2NlY2Ny43MWgtMS41NjZWNTEuMTk1eiIvPjxwYXRoIGZpbGw9IiMyM0EzQzIiIGQ9Ik0xMDAuOTkzIDQ5LjU0M2gxOS44MTh2MTkuODE4aC0xOS44MThWNDkuNTQzem0xLjY1MSAxLjY1MmgxLjU2M1Y2Ny43MWgtMS41NjNWNTEuMTk1em0yLjk0IDBoMS42MjZWNjcuNzFoLTEuNjI2VjUxLjE5NXptMy4wMDMgMGgxLjYyNlY2Ny43MWgtMS42MjZWNTEuMTk1em0zLjAwMyAwaDEuNjI2VjY3LjcxaC0xLjYyNlY1MS4xOTV6bTMuMDAyIDBoMS42MjhWNjcuNzFoLTEuNjI4VjUxLjE5NXptMy4wMDMgMGgxLjU2NFY2Ny43MWgtMS41NjRWNTEuMTk1eiIvPjxwYXRoIGZpbGw9IiMzNEJCREUiIGQ9Ik0xMDAuOTkzIDI2LjY3N2gxOS44MTh2MTkuODE3aC0xOS44MThWMjYuNjc3em0xLjY1MSAxLjY1MmgxLjU2M3YxNi41MTRoLTEuNTYzVjI4LjMyOXptMi45NCAwaDEuNjI2djE2LjUxNGgtMS42MjZWMjguMzI5em0zLjAwMyAwaDEuNjI2djE2LjUxNGgtMS42MjZWMjguMzI5em0zLjAwMyAwaDEuNjI2djE2LjUxNGgtMS42MjZWMjguMzI5em0zLjAwMiAwaDEuNjI4djE2LjUxNGgtMS42MjhWMjguMzI5em0zLjAwMyAwaDEuNTY0djE2LjUxNGgtMS41NjRWMjguMzI5ek0xMjMuODU5IDQ5LjU0M2gxOS44MTh2MTkuODE4aC0xOS44MThWNDkuNTQzem0xLjY1MiAxLjY1MmgxLjU2M1Y2Ny43MWgtMS41NjNWNTEuMTk1em0yLjk0IDBoMS42MjZWNjcuNzFoLTEuNjI2VjUxLjE5NXptMy4wMDIgMGgxLjYyNlY2Ny43MWgtMS42MjZWNTEuMTk1em0zLjAwMyAwaDEuNjI3VjY3LjcxaC0xLjYyN1Y1MS4xOTV6bTMuMDAzIDBoMS42MjdWNjcuNzFoLTEuNjI3VjUxLjE5NXptMy4wMDMgMGgxLjU2NFY2Ny43MWgtMS41NjRWNTEuMTk1eiIvPjxwYXRoIGZpbGw9IiMyM0EzQzIiIGQ9Ik0xMjMuODU5IDI2LjY3N2gxOS44MTh2MTkuODE3aC0xOS44MThWMjYuNjc3em0xLjY1MiAxLjY1MmgxLjU2M3YxNi41MTRoLTEuNTYzVjI4LjMyOXptMi45NCAwaDEuNjI2djE2LjUxNGgtMS42MjZWMjguMzI5em0zLjAwMiAwaDEuNjI2djE2LjUxNGgtMS42MjZWMjguMzI5em0zLjAwMyAwaDEuNjI3djE2LjUxNGgtMS42MjdWMjguMzI5em0zLjAwMyAwaDEuNjI3djE2LjUxNGgtMS42MjdWMjguMzI5em0zLjAwMyAwaDEuNTY0djE2LjUxNGgtMS41NjRWMjguMzI5eiIvPjxwYXRoIGZpbGw9IiMzNEJCREUiIGQ9Ik0xMjMuODU5IDMuODFoMTkuODE4VjIzLjYzaC0xOS44MThWMy44MXptMS42NTIgMS42NTFoMS41NjN2MTYuNTE2aC0xLjU2M1Y1LjQ2em0yLjk0IDBoMS42MjZ2MTYuNTE2aC0xLjYyNlY1LjQ2em0zLjAwMiAwaDEuNjI2djE2LjUxNmgtMS42MjZWNS40NnptMy4wMDMgMGgxLjYyN3YxNi41MTZoLTEuNjI3VjUuNDZ6bTMuMDAzIDBoMS42Mjd2MTYuNTE2aC0xLjYyN1Y1LjQ2em0zLjAwMyAwaDEuNTY0djE2LjUxNmgtMS41NjRWNS40NnoiLz48cGF0aCBmaWxsPSIjMjNBM0MyIiBkPSJNMTQ2LjcyNSA0OS41NDNoMTkuODE4djE5LjgxOGgtMTkuODE4VjQ5LjU0M3ptMS42NSAxLjY1MmgxLjU2NVY2Ny43MWgtMS41NjRWNTEuMTk1em0yLjk0IDBoMS42MjdWNjcuNzFoLTEuNjI2VjUxLjE5NXptMy4wMDQgMGgxLjYyN1Y2Ny43MWgtMS42MjdWNTEuMTk1em0zLjAwMiAwaDEuNjI3VjY3LjcxaC0xLjYyN1Y1MS4xOTV6bTMuMDA0IDBoMS42MjZWNjcuNzFoLTEuNjI2VjUxLjE5NXptMy4wMDIgMGgxLjU2NFY2Ny43MWgtMS41NjRWNTEuMTk1eiIvPjxwYXRoIGZpbGw9IiNEM0VDRUMiIGQ9Ik05Ni43MDQgMTAxLjQ5MmE1LjQ2OCA1LjQ2OCAwIDEgMS0uMDAyIDEwLjkzNSA1LjQ2OCA1LjQ2OCAwIDAgMSAuMDAyLTEwLjkzNSIvPjxwYXRoIGZpbGw9IiMzNjQ1NDgiIGQ9Ik05Ni43MDQgMTAzLjA0M2MuNSAwIC45NzcuMDk0IDEuNDE3LjI2NWExLjU5OCAxLjU5OCAwIDAgMCAuNzk4IDIuOThjLjYwNSAwIDEuMTMtLjMzNSAxLjQwMi0uODMxYTMuOTE1IDMuOTE1IDAgMSAxLTMuNjE3LTIuNDE0TTAgOTAuMTYyaDI1NC4zMjdjLTUuNTM3LTEuNDA0LTE3LjUyLTMuMzAyLTE1LjU0NC0xMC41Ni0xMC4wNyAxMS42NTItMzQuMzUzIDguMTc1LTQwLjQ4MiAyLjQzLTYuODI0IDkuODk4LTQ2LjU1NCA2LjEzNS00OS4zMjUtMS41NzYtOC41NTYgMTAuMDQxLTM1LjA2NyAxMC4wNDEtNDMuNjIzIDAtMi43NzMgNy43MTEtNDIuNTAyIDExLjQ3NC00OS4zMjcgMS41NzUtNi4xMjggNS43NDYtMzAuNDEgOS4yMjMtNDAuNDgtMi40MjhDMTcuNTIyIDg2Ljg2IDUuNTM5IDg4Ljc1OCAwIDkwLjE2MyIvPjxwYXRoIGZpbGw9IiNCREQ5RDciIGQ9Ik0xMTEuMjM3IDE0MC44OWMtMTMuNTQtNi40MjUtMjAuOTcxLTE1LjE2LTI1LjEwNi0yNC42OTQtNS4wMyAxLjQzNS0xMS4wNzUgMi4zNTMtMTguMSAyLjc0Ny0yLjY0Ni4xNDgtNS40My4yMjQtOC4zNS4yMjQtMy4zNjggMC02LjkxNy0uMS0xMC42NDMtLjI5NyAxMi40MTcgMTIuNDEgMjcuNjkyIDIxLjk2NCA1NS45NzYgMjIuMTM4IDIuMDg4IDAgNC4xNi0uMDQgNi4yMjMtLjExOCIvPjxwYXRoIGZpbGw9IiNEM0VDRUMiIGQ9Ik05MS4xNiAxMjQuOTk0Yy0xLjg3My0yLjU0My0zLjY5LTUuNzM5LTUuMDI2LTguOC01LjAzIDEuNDM3LTExLjA3NyAyLjM1NS0xOC4xMDMgMi43NSA0LjgyNiAyLjYxOSAxMS43MjcgNS4wNDYgMjMuMTMgNi4wNSIvPjwvZz48L3N2Zz4=;" vertex="1" parent="1">
          <mxGeometry x="342" y="100" width="71.51" height="60" as="geometry" />
        </mxCell>
        <mxCell id="HV5D_f1Mmfy7SxoI7Yci-2" value="" style="shape=image;verticalLabelPosition=bottom;labelBackgroundColor=default;verticalAlign=top;aspect=fixed;imageAspect=0;editableCssRules=.*;image=data:image/svg+xml,PHN2ZyB4bWxucz0iaHR0cDovL3d3dy53My5vcmcvMjAwMC9zdmciIHdpZHRoPSI1MTEuNzMzNzAzNjEzMjgxMjUiIHZpZXdCb3g9IjAuMDA1MDE0NDE5NTU1NjY0MDYyNSAwLjIwMzYxMTM3MzkwMTM2NzIgNTExLjczMzcwMzYxMzI4MTI1IDIzMy40ODc0NDIwMTY2MDE1NiIgcHJlc2VydmVBc3BlY3RSYXRpbz0ieE1pZFlNaWQiIGhlaWdodD0iMjMzLjQ4NzQ0MjAxNjYwMTU2Ij48ZyBmaWxsPSIjMWExOTE5Ij48cGF0aCBkPSJtNDkuNzYzNDgxMyAyMC45Nzk1OTA1Yy0yLjU4MjU3Ni0yLjU5MjYwNTQtNi4xNjU1ODY4LTQuMTg5NzkwNy0xMC4xNTk4MDM4LTQuMTg5NzkwNy0zLjk4NDE4NzYgMC03LjUzOTYxNzUgMS41OTcxODUzLTEwLjA4OTU5NzkgNC4xODk3OTA3aC0uMDY1MTkxMmMtMi41NzUwNTM5IDIuNTc1MDU0LTQuMTcyMjM5MyA2LjE2ODA5NDItNC4xNzIyMzkzIDEwLjEzNzIzNzcgMCAzLjk5MTcwOTYgMS41OTcxODU0IDcuNTYyMTgzNiA0LjE3MjIzOTMgMTAuMTEyMTY0bC4wNjUxOTEyLjA3MDIwNmMyLjU0OTk4MDQgMi41NzAwMzkyIDYuMTA1NDEwMyA0LjE0NDY1ODMgMTAuMDg5NTk3OSA0LjE0NDY1ODMgMy45OTQyMTcgMCA3LjU3NzIyNzgtMS41NzQ2MTkxIDEwLjE1OTgwMzgtNC4xNDQ2NTgzbC4wMzAwODgyLS4wNzAyMDZjMi41ODUwODM0LTIuNTQ5OTgwNCA0LjE2MjIwOTktNi4xMjA0NTQ0IDQuMTYyMjA5OS0xMC4xMTIxNjQgMC0zLjk2OTE0MzUtMS41NzcxMjY1LTcuNTYyMTgzNy00LjE2MjIwOTktMTAuMTM3MjM3N3ptLTEwLjE1OTgwMzggMTk2LjEyNTMzNDVjMy45OTQyMTcgMCA3LjU3NzIyNzgtMS42MjcyNzQgMTAuMTU5ODAzOC00LjE3MjI0bC4wMzAwODgyLS4wNzUyMmMyLjU4NTA4MzQtMi41Mzk5NTEgNC4xNjIyMDk5LTYuMTMyOTkxIDQuMTYyMjA5OS0xMC4wODIwNzYgMC0zLjk5MTcxLTEuNTc3MTI2NS03LjU2NzE5OC00LjE2MjIwOTktMTAuMTU0Nzg5aC0uMDMwMDg4MmMtMi41ODI1NzYtMi42MTc2NzktNi4xNjU1ODY4LTQuMTk5ODItMTAuMTU5ODAzOC00LjE5OTgyLTMuOTg0MTg3NiAwLTcuNTM5NjE3NSAxLjU4MjE0MS0xMC4wODk1OTc5IDQuMTk5ODJoLS4wNjUxOTEyYy0yLjU3NTA1MzkgMi41ODc1OTEtNC4xNzIyMzkzIDYuMTYzMDc5LTQuMTcyMjM5MyAxMC4xNTQ3ODkgMCAzLjk0OTA4NSAxLjU5NzE4NTQgNy41NDIxMjUgNC4xNzIyMzkzIDEwLjA4MjA3NmwuMDY1MTkxMi4wNzUyMmMyLjU0OTk4MDQgMi41NDQ5NjYgNi4xMDU0MTAzIDQuMTcyMjQgMTAuMDg5NTk3OSA0LjE3MjI0em03OC4wNjE0OTM1LTQzLjQwOTg0M2MzLjU0NzkwOC0uOTMyNzM2IDYuNzU5ODMtMy4yMDk0MTUgOC43MjMwODktNi42NTQ1MjFsLjI2MzI3My0uNTAzOTc5YzEuNzQ1MTE5LTMuMjYyMDY5IDIuMDYzNTUzLTcuMDMzMTMxIDEuMTMwODE3LTEwLjM4MDQ1MS0uOTQwMjU4LTMuNTcyOTgxLTMuMjQyMDExLTYuNzQyMjc4LTYuNjc5NTk1LTguNzE1NTY3bC0uMjAzMDk2LS4xMzUzOTdjLTMuMzQ5ODI2LTEuODQwMzk5LTcuMTYxMDA2LTIuMjQxNTc2LTEwLjY2NjI4OS0xLjI4NjI3My0zLjU2Mjk1Mi44OTAxMTEtNi43NjQ4NDUgMy4yNjIwNjktOC43MTU1NjcgNi42NzcwODctMS45NzU3OTYzIDMuMzk0OTU5LTIuMzg3MDAyNiA3LjI5NjQwNC0xLjQ0MTczIDEwLjg4NjkzNy45NzUzNjIgMy41MzI4NjMgMy4yNTk1NjIgNi43MjQ3MjcgNi42NzcwODggOC43MjA1ODJoLjAyMDA1OGMzLjQyNTA0OCAxLjk2ODI3NCA3LjI5NjQwNCAyLjMyMTgxMSAxMC44OTE5NTIgMS4zOTE1ODJ6bS02My4zNjU4ODM5LTcxLjQyOTUzOWMtMy43NjEwMzMtMy43NTEwMDM1LTguOTUxMjU4Ni02LjEwMjkwMjgtMTQuNjk1NjA5Ni02LjEwMjkwMjgtNS43MzY4MjkgMC0xMC45MTIwMTA0IDIuMzUxODk5My0xNC42NjU1MjE0IDYuMTAyOTAyOC0zLjc0MDk3NDEgMy43NDU5ODktNi4wNDc3NDEgOC45MTM2NDgtNi4wNDc3NDEgMTQuNjU3OTk5czIuMzA2NzY2OSAxMC45MzQ1NzcgNi4wNDc3NDEgMTQuNzIzMTkxYzMuNzUzNTExIDMuNzI4NDM3IDguOTI4NjkyNCA2LjA1Nzc3IDE0LjY2NTUyMTQgNi4wNTc3NyA1Ljc0NDM1MSAwIDEwLjkzNDU3NjYtMi4zMjkzMzMgMTQuNjk1NjA5Ni02LjA1Nzc3IDMuNzUxMDAzNi0zLjc4ODYxNCA2LjA1Nzc3MDUtOC45Nzg4NCA2LjA1Nzc3MDUtMTQuNzIzMTkxcy0yLjMwNjc2NjktMTAuOTEyMDEtNi4wNTc3NzA1LTE0LjY1Nzk5OXptLTguMjY0MjQzMi0yNC40MTkxMzM1YzguMzM5NDYzOCAxLjM3NDAzMDcgMTUuODI2NDI2OSA1LjM2ODI0NzggMjEuNTUwNzE5MSAxMS4xMzI2NTc3aC4wNDI2MjVjLjkxMDE3LjkwNzY2MjYgMS43OTUyNjY0IDEuOTA4MDk3NCAyLjYyMDE4NjMgMi45MDYwMjQ4bDE0LjMwNDQ2MjItOC4yNzQyNzI2Yy0xLjkyMzE0MTUtNS44MTIwNDk3LTIuMDEzNDA2My0xMS44ODczNzE2LS40NjYzNjgxLTE3LjU4NjU5MDMgMi4wMzg0Nzk5LTcuNjI5ODgyMyA2Ljk4NTQ5Mi0xNC40NTk5MTgyIDE0LjQwMjI0OTEtMTguNzM5OTczOGwuMjQwNzA2MS0uMTUyOTQ4NmM3LjMzNjUyMTQtNC4xNDk2NzMxIDE1LjY3MzQ3ODQtNS4wMTQ3MTA3IDIzLjE5ODA1MTQtMi45NzYyMzA4IDcuNjIyMzYgMi4wNDM0OTQ2IDE0LjQ5NzUyOSA3LjAxMzA3MjkgMTguNzc3NTg0IDE0LjQxNzI5MzF2LjAyMjU2NjJjNC4yNTk5OTcgNy4zNjQxMDI3IDUuMTIyNTI3IDE1LjgxMzg5MDEgMy4wOTE1NjkgMjMuNDIxMjA2Mi0yLjAyODQ1IDcuNjI3Mzc0OS02Ljk5MzAxNCAxNC41MDUwNTA2LTE0LjQwMjI0OSAxOC43NjAwMzI2bC0xLjk1MzIzIDEuMTUzMzgzaC0uMTk4MDgxYy02Ljg1MjYwMiAzLjI2MjA3LTE0LjM4NzIwNCAzLjc3MzU3LTIxLjMwNzUwNSAxLjk1MDcyMy01LjY4MTY2Ny0xLjUwNDQxMy0xMC44OTE5NTE4LTQuNjc4NzI1MS0xNC45NzM5MjYzLTkuMTc5NDI4bC0xNC4yODQ0MDMzIDguMjUxNzA2YzEuNjQyMzE3OCA0LjM0Mjc0IDIuNTQ5OTgwNCA5LjAyMzk3MiAyLjU0OTk4MDQgMTMuOTcwOTg0IDAgNC45MjE5MzktLjkwNzY2MjYgOS42NzA4Ny0yLjU0OTk4MDQgMTQuMDM2MTc1bDE0LjI4NDQwMzMgOC4yMjkxNDFjNC4wODE5NzQ1LTQuNTcwOTA5IDkuMjkyMjU5My03LjY3MjUwOCAxNC45NzM5MjYzLTkuMTgxOTM2IDcuNjI0ODY3LTIuMDgzNjEyIDE2LjA3NDY1NS0xLjE5ODUxNSAyMy40NTg4MTYgMy4xMDY2MTRsLjQ3Mzg5LjIyMDY0N3YuMDIyNTY2YzcuMTMzNDI2IDQuMzI1MTg4IDExLjkyMjQ3NSAxMC45OTk3NjggMTMuOTI4MzU5IDE4LjUzOTM4NiAyLjAzMDk1OCA3LjU2MjE4MyAxLjE2ODQyOCAxNi4wMTY5ODUtMy4wOTE1NjkgMjMuMzk2MTMybC0uMjU4MjU3LjUxNDAwOC0uMDMwMDg5LS4wNDI2MjVjLTQuMjc3NTQ4IDcuMTEzMzY3LTExLjAyMjMzNCAxMS45MzI1MDQtMTguNDY2NjcyIDEzLjk3MDk4NC03LjYzNDg5NyAyLjAxMzQwNi0xNi4wODcxOTIgMS4xNTMzODMtMjMuNDYxMzIzNS0zLjA4OTA2MnYtLjA1NzY2OWMtNy40MTY3NTcxLTQuMjg3NTc4LTEyLjM2Mzc2OTItMTEuMTMyNjU4LTE0LjQwMjI0OTEtMTguNzQ3NDk2LTEuNTQ3MDM4Mi01LjY3NDE0NS0xLjQ1Njc3MzQtMTEuNzQ5NDY3LjQ2NjM2ODEtMTcuNTU5MDA5bC0xNC4zMDQ0NjIyLTguMjU0MjE0Yy0uODI0OTE5OS45OTc5MjctMS43MTAwMTYzIDEuOTUzMjMtMi42MjAxODYzIDIuODYwODkybC0uMDQyNjI1LjA0NTEzM2MtNS43MjQyOTIyIDUuNzQ0MzUxLTEzLjIxMTI1NTMgOS43MzYwNjEtMjEuNTUwNzE5MSAxMS4wNjQ5NTl2MTYuNTI4NDg2YzUuOTQyNDMyMSAxLjI0MTE0MSAxMS4yNjMwNDAyIDQuMjEyMzU3IDE1LjQzMDI2NDcgOC4zODIwODlsLjAyMjU2NjIuMDQyNjI1YzUuNTg2Mzg3NyA1LjU2MTMxNCA5LjA0NjUzODEgMTMuMzA5MDQyIDkuMDQ2NTM4MSAyMS44MjQwMjEgMCA4LjQ4OTkwNS0zLjQ2MDE1MDQgMTYuMTkyNTAxLTkuMDQ2NTM4MSAyMS43ODEzOTZsLS4wMjI1NjYyLjA4Nzc1N2MtNS42MjY1MDUzIDUuNTg2Mzg4LTEzLjM0NDE0NTEgOS4wNDY1MzgtMjEuODYxNjMxMSA5LjA0NjUzOC04LjQ3MjM1MzcgMC0xNi4yMTAwNTIyLTMuNDYwMTUtMjEuODI0MDIwOC05LjA0NjUzOGgtLjAyMjU2NjJ2LS4wODc3NTdjLTUuNTkxNDAyNC01LjU4ODg5NS05LjA1OTA3NDg1LTEzLjI5MTQ5MS05LjA1OTA3NDg1LTIxLjc4MTM5NiAwLTguNTE0OTc5IDMuNDY3NjcyNDUtMTYuMjYyNzA3IDkuMDU5MDc0ODUtMjEuODI0MDIxdi0uMDQyNjI1aC4wMjI1NjYyYzQuMTY0NzE3Mi00LjE2OTczMiA5LjQ5NTM1NDYtNy4xNDA5NDggMTUuNDE1MjIwNS04LjM4MjA4OXYtMTYuNTI4NDg2Yy04LjMzNjk1NjQtMS4zMjg4OTgtMTUuODExMzgyNy01LjMyMDYwOC0yMS41MjU2NDU1LTExLjA2NDk1OWwtLjA2MDE3NjUtLjA0NTEzM2MtNy4xMzU5MzMyOS03LjE2MTAwNi0xMS42MDQwNDA0OS0xNy4wMjk5NTctMTEuNjA0MDQwNDktMjcuOTY0NTM0IDAtMTAuOTEyMDEgNC40NjgxMDcyLTIwLjc4MDk2MDcgMTEuNjA0MDQwNDktMjcuOTQ0NDc0OGguMDYwMTc2NWM1LjcxNDI2MjgtNS43NjQ0MDk5IDEzLjE4ODY4OTEtOS43NTg2MjcgMjEuNTI1NjQ1NS0xMS4xMzI2NTc3di0xNi40NTgyODA0Yy01LjkxOTg2NTktMS4yODM3NjU5LTExLjI1MDUwMzMtNC4yNTQ5ODItMTUuNDE1MjIwNS04LjQwMjE0NzdoLS4wMjI1NjYydi0uMDQ1MTMyNGMtNS41OTE0MDI0LTUuNjExNDYxMy05LjA1OTA3NDg1LTEzLjMwNjUzNDgtOS4wNTkwNzQ4NS0yMS44MjQwMjA4IDAtOC40NzIzNTM3IDMuNDY3NjcyNDUtMTYuMjM1MTI1OCA5LjA1OTA3NDg1LTIxLjgyNDAyMDg1bC4wMjI1NjYyLS4wMjI1NjYyYzUuNjEzOTY4Ni01LjYwODk1Mzg4IDEzLjM1MTY2NzEtOS4wNjY1OTY4OCAyMS44MjQwMjA4LTkuMDY2NTk2ODggOC41MTc0ODYgMCAxNi4yMzUxMjU4IDMuNDU3NjQzIDIxLjg2MTYzMTEgOS4wNjY1OTY4OHYuMDIyNTY2MmguMDIyNTY2MmM1LjU4NjM4NzcgNS41ODg4OTUwNSA5LjA0NjUzODEgMTMuMzUxNjY3MTUgOS4wNDY1MzgxIDIxLjgyNDAyMDg1IDAgOC41MTc0ODYtMy40NjAxNTA0IDE2LjIxMjU1OTUtOS4wNDY1MzgxIDIxLjgyNDAyMDhsLS4wMjI1NjYyLjA0NTEzMjRjLTQuMTY3MjI0NSA0LjE0NzE2NTctOS40ODc4MzI2IDcuMTE4MzgxOC0xNS40MzAyNjQ3IDguNDAyMTQ3N3ptODAuMzUzMjE2MS0xMC45NzcyMDE3LS4xMjI4Ni0uMTgwNTI5NWMtMS45NzA3ODEtMy4zMjQ3NTMyLTUuMTIwMDItNS41NDEyNTUzLTguNjAwMjI5LTYuNDk2NTU3Ny0zLjU5NTU0OC0uOTU1MzAyNC03LjQ2NjkwNC0uNTU0MTI1NS0xMC45MTIwMSAxLjQyMTY3MDVoLjAyMDA1OGMtMy40Mzc1ODQgMS45NTA3MjI0LTUuNzM2ODI5IDUuMTQwMDc4NC02LjY5NzE0NiA4LjcxNTU2NzEtLjk0NTI3MjYgMy41NDc5MDc4LS41MzQwNjYzIDcuNDY5NDExNSAxLjQ0MTczIDEwLjg4NjkzNjlsLjA2NzY5OC4wODc3NTc0YzEuOTc4MzA0IDMuMzcyMzkyOSA1LjEzMDA0OSA1LjYzNDAyNzQgOC42NDc4NjkgNi41NDQxOTc0IDMuNTM1MzcxIDEuMDAwNDM0OCA3LjQ3NDQyNi41NzY2OTE3IDEwLjg2OTM4NS0xLjM5OTEwNDNsLjE4MzAzNy0uMDg3NzU3NGMzLjM0MjMwNS0xLjk5NTg1NDggNS41Njg4MzYtNS4xNDUwOTMxIDYuNDk2NTU4LTguNjA1MjQzNS45NDc3OC0zLjU3MDQ3NC41NjkxNjktNy40NzE5MTg5LTEuMzk0MDktMTAuODg2OTM2OXoiLz48cGF0aCBkPSJtMTg5Ljg1OTQ1MyA3MS43MDMzODg5aDE1Ljk2MTgyNHY0OC43MjI5MjkxbDIzLjAxNzUyMi0yNS40NTk2ODYzaDE5LjEzODY0M2wtMjcuNzg5MDE5IDI5LjQ5NjUyODMgMjcuOTA0MzU4IDM3LjM4OTY4M2gtMTguMjc2MTEzbC0yMy45OTUzOTEtMzMuMzk3OTczdjMzLjM5Nzk3M2gtMTUuOTYxODI0em03Ni42NTk4ODIgNTYuOTk0Njk0MWMwIDguMjk2ODM5IDUuOTY3NTA2IDIwLjM1OTcyNSAyMC4zNDQ2ODEgMjAuMzU5NzI1IDguODk2MDk3IDAgMTQuNzUwNzcyLTQuNjM2MSAxNy43ODcxNzktMTAuNzExNDIyIDEuNTg5NjYzLTIuOTQ4NjUgMi4zMjE4MTEtNi4xMDAzOTUgMi41Njc1MzItOS4zODAwMTYuMTEwMzIzLTMuMTc0MzEyLS40ODg5MzQtNi40NzM5OTEtMS44Mzc4OTItOS40MDUwOS0yLjc5ODIwOC02LjMxODUzNS05LjAwODkyNy0xMS43OTcxMDctMTguNjM0NjY0LTExLjc5NzEwNy0xMi45MDc4NjYgMC0yMC4yMjY4MzYgMTAuNDY1NzAxLTIwLjIyNjgzNiAyMC44MjM1ODZ6bTU2LjUzMzM0MSAzMy4xNTQ3NmgtMTUuOTY5MzQ2di05LjYyMzIzYy00LjI0OTk2OCA3Ljc4MjgzMS0xMy4xNDg1NzIgMTEuNjg5MjktMjIuNTMzNjAzIDExLjY4OTI5LTIxLjQ0NTQxIDAtMzMuOTg5NzA5LTE2LjcwMTQ5NC0zMy45ODk3MDktMzUuNTc0MzU3IDAtMjEuMDY5MzA3IDE1LjIyNzE2OS0zNS40NDE0Njc3IDMzLjk4OTcwOS0zNS40NDE0Njc3IDEyLjE4MzI0IDAgMTkuNjEyNTM0IDYuNDU2NDM5OSAyMi41MzM2MDMgMTEuODIyMTgwN3YtOS43NTg2MjczaDE1Ljk2OTM0NnptMTguMDczMDE3LTU0LjU3NzYwNGgtOC4yNzE3NjV2LTEyLjMwODYwNzNoOC4yNzE3NjV2LTMuNzY4NTU1MWMwLTE5Ljg3MzI5ODMgMTUuMTExODMxLTIxLjA3MTgxNDIgMjYuNTcwNDQ0LTIxLjIwNDcwNHYxMi4yODYwNDExYy00LjAyOTMyIDAtMTAuNjAxMDk4IDAtMTAuNjAxMDk4IDkuNDAyNTgyNXYzLjI4NDYzNTVoMTAuNjAxMDk4djEyLjMwODYwNzNoLTEwLjYwMTA5OHY1NC41Nzc2MDRoLTE1Ljk2OTM0NnptMzcuNDI0Nzg2LTM1LjU3MTg1MDFoMTUuOTU2ODA5djQ4LjcyMjkyOTFsMjMuMDIyNTM3LTI1LjQ1OTY4NjNoMTkuMTM4NjQzbC0yNy43ODkwMTkgMjkuNDk2NTI4MyAyNy44OTkzNDMgMzcuMzg5NjgzaC0xOC4yNzYxMTNsLTIzLjk5NTM5MS0zMy4zOTc5NzN2MzMuMzk3OTczaC0xNS45NTY4MDl6bTc2LjY1OTg4MiA1Ni45OTQ2OTQxYzAgOC4yOTY4MzkgNS45NjQ5OTggMjAuMzU5NzI1IDIwLjM0NDY4MSAyMC4zNTk3MjUgOC44ODM1NiAwIDE0LjczODIzNC00LjYzNjEgMTcuNzc5NjU2LTEwLjcxMTQyMiAxLjU5NDY3OC0yLjk0ODY1IDIuMzI5MzM0LTYuMTAwMzk1IDIuNTcwMDQtOS4zODAwMTYuMTEwMzIzLTMuMTc0MzEyLS40ODg5MzUtNi40NzM5OTEtMS44NDAzOTktOS40MDUwOS0yLjc5MzE5NC02LjMxODUzNS05LjAwMzkxMy0xMS43OTcxMDctMTguNjI3MTQzLTExLjc5NzEwNy0xMi45MTAzNzMgMC0yMC4yMjY4MzUgMTAuNDY1NzAxLTIwLjIyNjgzNSAyMC44MjM1ODZ6bTU2LjUyODMyNiAzMy4xNTQ3NmgtMTUuOTY0MzMydi05LjYyMzIzYy00LjI2MjUwNCA3Ljc4MjgzMS0xMy4xNTM1ODYgMTEuNjg5MjktMjIuNTMzNjAyIDExLjY4OTI5LTIxLjQ0NTQxIDAtMzMuOTc5NjgtMTYuNzAxNDk0LTMzLjk3OTY4LTM1LjU3NDM1NyAwLTIxLjA2OTMwNyAxNS4yMjIxNTUtMzUuNDQxNDY3NyAzMy45Nzk2OC0zNS40NDE0Njc3IDEyLjE3NTcxNyAwIDE5LjYxMjUzMyA2LjQ1NjQzOTkgMjIuNTMzNjAyIDExLjgyMjE4MDd2LTkuNzU4NjI3M2gxNS45NjQzMzJ6Ii8+PC9nPjwvc3ZnPg==;" vertex="1" parent="1">
          <mxGeometry x="320" y="160" width="102.18" height="46.5" as="geometry" />
        </mxCell>
        <mxCell id="HV5D_f1Mmfy7SxoI7Yci-4" style="edgeStyle=orthogonalEdgeStyle;rounded=0;orthogonalLoop=1;jettySize=auto;html=1;exitX=1;exitY=0.5;exitDx=0;exitDy=0;entryX=0;entryY=0.5;entryDx=0;entryDy=0;" edge="1" parent="1" source="HV5D_f1Mmfy7SxoI7Yci-3" target="HV5D_f1Mmfy7SxoI7Yci-2">
          <mxGeometry relative="1" as="geometry" />
        </mxCell>
        <mxCell id="HV5D_f1Mmfy7SxoI7Yci-8" value="Produce" style="edgeLabel;html=1;align=center;verticalAlign=middle;resizable=0;points=[];" vertex="1" connectable="0" parent="HV5D_f1Mmfy7SxoI7Yci-4">
          <mxGeometry x="-0.4464" y="1" relative="1" as="geometry">
            <mxPoint x="18" y="1" as="offset" />
          </mxGeometry>
        </mxCell>
        <mxCell id="HV5D_f1Mmfy7SxoI7Yci-3" value="Producer" style="rounded=1;whiteSpace=wrap;html=1;" vertex="1" parent="1">
          <mxGeometry x="120" y="161.63" width="120" height="43.25" as="geometry" />
        </mxCell>
        <mxCell id="HV5D_f1Mmfy7SxoI7Yci-7" style="edgeStyle=orthogonalEdgeStyle;rounded=0;orthogonalLoop=1;jettySize=auto;html=1;exitX=0;exitY=0.5;exitDx=0;exitDy=0;entryX=1;entryY=0.5;entryDx=0;entryDy=0;" edge="1" parent="1" source="HV5D_f1Mmfy7SxoI7Yci-5" target="HV5D_f1Mmfy7SxoI7Yci-2">
          <mxGeometry relative="1" as="geometry" />
        </mxCell>
        <mxCell id="HV5D_f1Mmfy7SxoI7Yci-9" value="Consume" style="edgeLabel;html=1;align=center;verticalAlign=middle;resizable=0;points=[];" vertex="1" connectable="0" parent="HV5D_f1Mmfy7SxoI7Yci-7">
          <mxGeometry x="-0.0923" relative="1" as="geometry">
            <mxPoint as="offset" />
          </mxGeometry>
        </mxCell>
        <mxCell id="HV5D_f1Mmfy7SxoI7Yci-5" value="Consumer" style="rounded=1;whiteSpace=wrap;html=1;" vertex="1" parent="1">
          <mxGeometry x="510" y="164.88" width="120" height="36.75" as="geometry" />
        </mxCell>
        <mxCell id="HV5D_f1Mmfy7SxoI7Yci-10" value="" style="endArrow=classic;html=1;rounded=0;entryX=0.5;entryY=0;entryDx=0;entryDy=0;exitX=0.5;exitY=1;exitDx=0;exitDy=0;" edge="1" parent="1" source="HV5D_f1Mmfy7SxoI7Yci-12" target="HV5D_f1Mmfy7SxoI7Yci-3">
          <mxGeometry width="50" height="50" relative="1" as="geometry">
            <mxPoint x="180" y="100" as="sourcePoint" />
            <mxPoint x="320" y="100" as="targetPoint" />
          </mxGeometry>
        </mxCell>
        <mxCell id="HV5D_f1Mmfy7SxoI7Yci-12" value="&lt;div style=&quot;color: #000000;background-color: #ffffff;font-family: IBMPlexMono, &#39;Courier New&#39;, monospace, Consolas, &#39;Courier New&#39;, monospace;font-weight: normal;font-size: 12px;line-height: 18px;white-space: pre;&quot;&gt;&lt;div&gt;&lt;span style=&quot;color: #000000;&quot;&gt;{&lt;/span&gt;&lt;/div&gt;&lt;div&gt;&lt;span style=&quot;color: #000000;&quot;&gt;&amp;nbsp; &amp;nbsp; &lt;/span&gt;&lt;span style=&quot;color: #a31515;&quot;&gt;&quot;header&quot;&lt;/span&gt;&lt;span style=&quot;color: #000000;&quot;&gt;: &lt;/span&gt;&lt;span style=&quot;color: #0451a5;&quot;&gt;&quot;val Header&quot;&lt;/span&gt;&lt;span style=&quot;color: #000000;&quot;&gt;,&lt;/span&gt;&lt;/div&gt;&lt;div&gt;&lt;span style=&quot;color: #000000;&quot;&gt;&amp;nbsp; &amp;nbsp; &lt;/span&gt;&lt;span style=&quot;color: #a31515;&quot;&gt;&quot;body&quot;&lt;/span&gt;&lt;span style=&quot;color: #000000;&quot;&gt;: &lt;/span&gt;&lt;span style=&quot;color: #0451a5;&quot;&gt;&quot;val Body&quot;&lt;/span&gt;&lt;/div&gt;&lt;div&gt;&lt;span style=&quot;color: #000000;&quot;&gt;}&lt;/span&gt;&lt;/div&gt;&lt;/div&gt;" style="text;whiteSpace=wrap;html=1;" vertex="1" parent="1">
          <mxGeometry x="75" y="10" width="210" height="80" as="geometry" />
        </mxCell>
        <mxCell id="HV5D_f1Mmfy7SxoI7Yci-15" style="edgeStyle=orthogonalEdgeStyle;rounded=0;orthogonalLoop=1;jettySize=auto;html=1;exitX=1;exitY=0.5;exitDx=0;exitDy=0;entryX=0.75;entryY=1;entryDx=0;entryDy=0;dashed=1;shape=link;" edge="1" parent="1" source="HV5D_f1Mmfy7SxoI7Yci-13" target="HV5D_f1Mmfy7SxoI7Yci-3">
          <mxGeometry relative="1" as="geometry" />
        </mxCell>
        <mxCell id="HV5D_f1Mmfy7SxoI7Yci-13" value="" style="shape=image;verticalLabelPosition=bottom;labelBackgroundColor=default;verticalAlign=top;aspect=fixed;imageAspect=0;image=data:image/png,iVBORw0KGgoAAAANSUhEUgAAAQAAAAEACAYAAABccqhmAAAACXBIWXMAAAdhAAAHYQGVw7i2AAAAGXRFWHRTb2Z0d2FyZQB3d3cuaW5rc2NhcGUub3Jnm+48GgAAIABJREFUeJzt3XmcXFWZ//HPc6u3quosnU5IL0kgQhggYVECSMgAIiD74oLDIsugqIiAguIPZthUQIkiOAISZFRWRRiWCAiIshpWlxAIBMjaS5bOQrqreqv7/P7ohHSSTrq66ladW1XP+/Xi9QrdXfd+ezlPnXvuuecIpsAtr64mtb2PTITUWIHRvsdowatFqQWtVagVqAAEGLn+hRVAfP2/O4Du9f9eDaDQLdAG0obQpvhtns9KhZUQWeahC9qRhVDXkc/v1gRLXAcw6ZhfGSO2m+Dt7nv+FFGZCOyw/r/RTqPBCmAhsEhFPvB85ir+nARr5sLk7kFeaxyzAhAyo1kxLEn3J0Gm4smeqro7sDNQ5jrbEPUC74rIHHz9J+irUSpeXsmYda6DmY2sADgWY3GDUn6A5+l0VfYG9gXKXefKkRTwDsIL4suLAq+3Uz/XdahSZgUg75pjcXSa73mHonq8wC6uEzm2AOEp9eXpKiqfXM2ota4DlRIrAHkwjOZdfORYX/wjBJlO3wCc2VKXIi94yhO9pB7pYty7rgMVOysAOVJFyw6CHi/CF4ADXOcpUG+hen8E7l1H4zuuwxQjKwABqqJ5+wicosJJwF6u8xSZN0T19z5yb5KGxa7DFAsrAFnTSJzmT+HJOaqcSOGN1hcaH3hGVW5LUvcQSI/rQIXMCkCGKlkyyfPKzhbVM4GxrvOUqGUi/E58uc3uJmTGCsAQRWmeLqKXgByN/fzC5EVUf5SgYRaIug5TKOwPOC1aHqX1BBG9mL779Ca8/olyc4Ku38LETtdhws4KwDYtr47Tc66KdwFog+s0ZkiWisqNHcgt9rzC1lkBGND8yhjxMxCuAupcpzFZWSmqMzrwb4LxSddhwsYKwCbmVsSoORORK+wdv+gsF9WfdtB9o10abGQFAAD1YjSficiVwHjXaUxOLRaVyzuouxPEdx3GtZIvAFFa9xNJ/Qzkk66zmLx63Ve+1UnD866DuFSyBSDK0nF43jWinEYJ/xyMzvI1cn4ndQtcJ3GhBP/wF1TFvMpLUb4DVLlOY0IhgcqPE7RfB5O6XIfJp5IqAFGaDhCRmcCurrOYMJL3POWcdur/4jpJvpREAahh1Yhur/NqVc4DPNd5TKgpwswqv/I7q6j90HWYXCv6AhCj6ThEbgYaXWcxBWUp6n09Qd0s10FyqYgLwJJo3Itcp8r5rpOYwqXCnUm/7FzYrt11llwoygIQo2UfEb1L+xbTNCZbC1T1tCSNL7kOErQiux7WSJymSxB9wRq/CdBEEXk2RtOVoBHXYYJUND2AGIsbkLLfAdNdZzHFS+Gvnpad3MF2ra6zBKEoCkDfM/r8Hqh3ncWUhOWeyn8Uw+3Cgr8EiNF8jgjPYI3f5M92vuiTcZoucR0kWwXcA1hQFfMqbkHlTNdJTOlS4Z6kz1egIeE6SyYKsgBEWdIoEpmFrbxrwuENtPfYBBOaXQcZqoIrAHFad1fxZwETXGcxZiNpRv1jEjT+3XWSoSioMYA4TYep+C9gjd+EjjYg8lyMlqNcJxmKgikAMZrOVpE/AsNdZzFmK6oRfThGy9ddB0lXQRSAmNd0FSK3U7y75priUYbozTFaLncdJB0hHwNQiXot14tykeskxgyVil6f9BsuCfM+BSEuACoxr/VGVL/pOokxGRN+mfDrzw3r+oMhLQAaiXmtM1E9y3USY7LVN1eg/gyQXtdZNhfCAqCRuNd8j6qc5DqJMUERkd91+HWngqRcZ+kvZIOAKjGv5ZfW+E2xUdUvxryWO0BD1eZCFEYl5rX8AuVs10mMyQnl9JjX/HPXMfoLTQGIeq3XoRTM/VNjMqJybtxrvsF1jA1CUQBiXtNVovpd1zmMyQdVLozR8t+uc0AIBgFjNJ29fpKPMaVF5dwE9be4jOC0AMRpPkKFR4EylzmMcaRHlGM6aHjSVQBnBaCa1il+34M9I1xlMMY1hXWe+v/ewbh/uji/kwKwfv2+2dhOvMYANKn6n0wybmm+T+xgELA1jpT9EWv8xmzQKOI9BEui+T5x3gtAzPNvxlbyMWZze0e9yMx8nzSvBSBK84Uop+fznMYUClFOjdHyjbyeM18nitI0TUT+AlTk65zGFKAeX/l0Jw3P5+NkeSkAcZbXqaReB23Ix/mMKXCtaO/e+VhkNA+XABpR6b3fGr8xaatTKbs7Hw8O5fwEMVovxbbrMmZIBA6O05Lz6fE5vQSI0TwV4SVsLT9jMtGr6k1PUvdyrk6Qwx5Aa1yEu7HGb0ymykT0LlhenasT5KwAxDy9ybboNiZbulPM652Rq6Pn5BIgRtNxiDyci2MbU5LUOzZB3aygDxt4ARhF2/BO6ZoLjAv62MaULmmu1MrdVjNqbZBHDfwSoNPr+jHW+I0JmDZ0eV0/CPqogfYAqmg+0BP+GvRxjTEA+KoclKThhaAOGGAPYH6lJ9yKNX5jcsVDuB3mVwZ3wIDEvPhlwK5BHc8YsyWBf4tRHdgEoUDeraM0jReReUAsiOMZY7Yp6Su7dtKwKNsDBdIDEJGfYo3fmHyJisc1QRwo6x7A+sd8XwjiWMaYtKkqB2Y7IJhlD0A9EbkRa/zG5JuIcGO2Twxm9eI4zWcAU7M5hjEmY5+I03paNgfI4p17fmVM4vOxxT2NcWlxQjt2hkldmbw44x5AlPhXscZvjGsTYlT/Z6YvzrAHsKAqJpXvAY2ZntgYE5iWhKZ2hPHJob4wox5AnKrzsMZvTFjUR4mck8kLM+gBtMZj4n8AbJfJCY0xOdGaUHaEhsRQXjTkHkCc1HlY4zcmbOqi8LWhvmiIPQAtj0nLB9jjvsaE0dKE1n8MpCfdFwypBxCn9RSs8RsTVuPitHxhKC8YUgFQ0QuHlscYk08qfBc07Z592gUgTtNh2KaexoTdntW0HpzuF6ddAFTkooziGGPyyhdNu62m1VWoZMmkiETeSffrjTFOaUojk7oY+/5gX5hWD8Dzyr6MNX5jCoVEvFRa04PTaNRaFpOWxUB9lqGMMfnTmtD6CYPdEhy0BxCl5Xis8RtTaOpiNB812BeVDfYFInwlmDzGDG7YcGH0aI/hIzyqqoSKSmhfpySTyupVPstafdcRC4fwZZRt7tC1zUuAKpq394QPyMM24qb0TNq5jP2mlTPtgAp22a2MHXcqY/SYbf+pJZPK4oUp3prby2uvdvPayz28MruH7m7NU+qCklJNbZ9kfNPWvmCbBSBG86UIPww+Vzg0NEbYfc++P7rVq5T57/Yy/51e17GGLBKBvT5RzoTtI1RWCS3NKV5/tYf2deFrFHvvU87nT4py4heqGD8hEsgxP1yrPPWnLh5+MMmjD3VZMehHVL7TQf1WNxfddgGQ5r9ThJN/jjymkksuG8bUfcuRzX4C89/p5YYZHdz16wSplJt86Rox0uOi78Y54+zYFu+cXV3K47O6+P4V65j3ltuiVlkpnHRKlPO/FWe3KYNedWZlxXKfu36d4Bc3JWhpDvkvMD9eTWjDvlv75FYLQCVLd46I905uMrlRWSn8zy9HcMrp0UG/dvZL3Zz8udUsXxbOa8499irn/odrGDd+2++iqRRc+V/r+OmP2vOUbKNIBM7+aozv/dcwxtbl9yoymVRuvzXBjOvaWbkinL/DfElpZKetzQnY6m8lQuSLuYuUf5EI3POHmrQaP8Anp1Xw2NO1DBsevukPe368nKefrx208UPf9/39a4dxwcXxPCTb6N8PquCl10dzw/+MyHvjB4hGhW9+K84/3h7DaWdGt+jplZIyej+/tc9t/TcjOqSnisLu25dUc8TRQ9tSbdfJZdz4ixE5SpSZaFS494Ea4vGh/UV//9rh7Ld/RY5SbVRRIVx7/XAef6aWKXuU5/x8g6kZ5fHLO0by0GOjqB1dmmPZKnLS1j434F/RMJp3SQlv5y5Sfo2q9Xjr/e0yejdXhen7rOQfb6T9iHVOXXBxnGt+PDyj1774fDeHH9QWcKKNtt8hwt331/Dxvd03/IEsWZzi5M+t5u+vh+N3mU8pTU3qYvx7m398wJLoo8flPlL+HP/Zqoy78iJw8mnpXTbkw2mnZ74D2wH/XsFOk3IzCLfblDKeeq42tI0fYPyECE8+W8shhwW2uW7B8IgcO/DHB+CLHJHbOPl14MHZdX0/9elw/MGMHuNlPYo+/aDgLwOmTa/gz8+PpnFcMLf1cikWE37/UA2HHRGO32m+iPCZgT4+QAFojQtMy3WgfEpnsGzbrw/HtWO23wfAuIAb6YTtI9z7QA3DRxTOKFs0Ktz3YA1T9w1vbyUHDoLmLbqPW/xlx0gdChRVeRzqgNnmqoeFowBUV2ffyKqHBdtQb7plxKCz98KoqqpvMLWuvvCyZ6gqhhy8+Qe3/O694ur+m9zZfc/ygu5KNzRGuOPOmpK5RSiebnEZsGUBUKwAmLR85qjCbfwbHHRIBWd+OfOB1YKiHLn5hzYpAFW0TgR2yFceU9h23yO303rz5ZofDy+JOQIKk6Is3WRV702+6wj+AfmNZApZJFIcfefhI4QLL8rvTEl3IpsM8G9SANQrrtF/k1urVxXPHPuvnhcvyMHMofI83eRNftPvWK0AmPTN/lt3oMeb/04vN/2kgxOOWsXkHZdTN7KVERUt7Ni4jH33XMGZp6zhzv9N5GRRkHhc+NJZxT8WoMomBeCji7hRtA3vpGtK/iOZQvXk410kEkoslvmlgO/Dg/cnue4H7bw9d+DHlltbfFpbfObO6eX++5JUVHzIGWdHufh71YHMjdjg1C9FueHH+X9qMs/2hOXVsF079OsBdNH1SSD8U7lMaKxY7nPbL4a0Ge0mnn+2m/0/sZIzTl6z1cY/kO5uZeYtCfbZYwWPPdqZ8fk3t+vkMvbYq+gnB5VV43+0PsBHBUBhqps8ppD94Mp1vP7q0B6uUYVrr27nqE+38ea/Mn8w58O1yhdPXM3tt2ZehDb3qUNz/8SkazpQARBP9nATxxSyZFL5wvGreGV2eg25q0v52tlr+MGV6/ADuJT3fbjo/LU8+0ww4xEHHlT4cxsG43vsvuHfG3sAqlYATEaWtfocftBKfvSD9m2uQ/jaKz0cdmAbd/06Gej5e3vh7NPXkExmvxbgfvsX/SUAohsLwPpBwPmVwCRHeUwR6OmBqy9fxw0z2vmPU6N8fP0ipcmk8u68FE881skLz3WjOVqvs6U5xcxbEpz/7ezu59eM8qgd7dG2snhucQ5gF5hbAZO7ywBixCeTxh4Bxgxm3Yd9A3Qu3Po/HVkXAOhbrrxtZbC3OEOmPE7tv3XAHA9AsOt/U/gWLUzx7rzsV0BuHFf8E4LA3wPWjwH4nr+b2zDGBOPZv2T/zh2vLv4CoB6TYX0BEJWJbuMYE4ympuz3Aghi3YWwE/ra/IZSt4O7KMYEJ4h9HCIlMB1O1d8BrACYIpNKZX+bYc2aUtha7KMewPJqYLTjNMYEoq4++7fvNauL+hbgBttBc8yrpq8rYEwxaGiwApAmqYbtPd+6/6aITJue/Uy+eW8X3g7RmfCRiR749a6DGBOEMdt5WW9H1tris2J5SfQAAL/OE6h1HcOYIJzwuaqsV/id88/S2TZM8Go931MrAKbgicDXvpH9NOCXXizqKcCb8D1qPbE7AKYIHPqZSnbZLfvHWWY9HNwCI2En6GgP9awHYAqa58GVPxiW9XE+eD/FW2+WxgAgAEptGdglwGA8D2Y9Ocp1DEaMLP456pk4/T9j7PWJ7Ef/H34g2HUKwk6gtgwY6TpI2InApw4t/pViClF9Q4TvX5v9u7/vw69uc/MYsysKNR5Q5TqIMZkQgZtnjmBUbfY9o1kPd7Lgg+wfJCokApUeUPyrIJqidMHFcQ4/Mpie2c0/7wjkOIVErQCYQnXQIRVc9cPhgRzr+We7ef6vpXP7r59KD7CLW1NQJu1cxp331VAWwCJ2vg/fu+jD7A9UmCqsB2AKSn1DhIefGBXYbr53/ybBP94ondl/m7FLAFM4RtZ4PPLEKLbfIZgVO9au8bnqv4t+K7BtqbQby6YgRKPC/Q/XsNuU4Bav/vb5H9LSXFoj/5vzgJIc/TCFo6JCuOcPNUybHlxn9aEHOrnvrtKa+DOALisAJtTKyuA3944M7HYf9O1kdP7X1wZ2vALW5QFdrlMYM5BIBGb+eiTHnRjcXLWeHjjjlNXFvvNPurqtB2BCSQRuvHkEJ50SDfS4F1+wtlTv+Q/ELgFM+IjAT38+grO+Egv0uDNvSQS6lXihk/UFoHQegDYF4Zrrh3POucE2/mee6uI7F9p1f3+6vgCsdh3EmA2u+P6wQDb47O/Vl3s4+XOr6SnZ+T4DE1hVBtIGpbARQuZ8H447YpXrGEzZvYzrfhLM/PcwOv/bcb57WXWgx5w7p5cTj15Fe7v9jW9Ooa0MYaW1/21Thb887f5mSU938f6ivvmtONfOCLa4vTe/l2MOb2P1KhvxH5Cw0lP8Ntc5TGk7/T9jgTf+xYtSHPeZVYHsFVisFNo8z8cKgHHmlNOj/OK2EVkv593f4kUpjvhUG4sWlvY038F4vrR5ilgBME6c8Lkqbrl9JF6AT6QsWZziyEOs8afHb/NAWlzHMKXnmOOr+PU9wTzTv8GSxX3v/AsXWONPh+K1eh6yyHUQU1oOOayS39w7kvLsF/L9yNIlfe/81vjTF0EXeO2wwHUQUzqmTa/gvgdrqKoK7qJ/Q+MvtUU9s6TrYLEHdR3AStdpTPHbb/8K/u+Po4jHg2v8TUv7Gv8H71vjH6Jl0JDYMPyy0GUSU/z22KucB2fVUD0suMa/rNXnmMNXWePPiC6EvgVBwAqAyaHJu5fxx6dGMbImuOH+5ct8jvx0G+/OK6GtvAIkIgtgfQFQkQ/cxjHFatLOZTz6p9pANu/YYEPjf+dta/yZ0vVjfx6A5zPXbRxTjD62Y4THnxnF2LrgGv+K5X2Nf95b1vizob6+CR9dAqT+5TKMKT7jxkd49Mla6huCWcEXrPEHKUJkDqwvAB0k3wbsYUkTiO3Gejz6p1HsMDG4xr9yhc9Rh7bx9lxr/AHobqftXfioBzCpC5jvMJApEqPHeDz+51p23iW4KX4bGv9bb1rjD4bMg8ndsPEuACJilwEmKyNGejz8+Ch22S34xj93jjX+oKjonA3/3jg646sVAJOxYcOFR/80ir0+Edz83jWrfU44apU1/oB5/kAFAH3VRRhT+GIx4Q+PjGLvfYJr/GvX9E3y+fvrNjQVNMF7ecO/PyoAHZTPBqzUmiGJRvsa//QDg9u1xxp/TvW2E3ltw//06wFs1w7MGeAFxgyookK46/c1HHRIsI3/2M+s4o3XrPHnyN/Xt3UANh2tEX0JlY/nPZIpOGVl8Nv7RnLE0cFt2QWwapVy1Q+HBXrMrVmxwmfe2708/GBnycwtEOHF/muAblIAxJeXVPhGvkOZwiICt/3vSI49IbgtuzaY+LEIEz8W3PyBdFx+9TAe+b9OvnPhhyxdUtwPFvm+vNj//zeZo5mCFzFmEBdcHOeLpwa7ZZdrx51YxbOzR7PHXgGuUhJKvX/r/3+bFIBOGhZhC4SYbahviHDZFfnpoudbXb3HHx6pYbuxAS5SGCIC7yYZ39T/Y1t+p8ITeUtkCs7Z58SIxQJcwjdkGsdFuOL7xVngEB7f/ENbFgBfrQCYrTrymGAH/cLotDNjjB5ThL0Af8s39y2+ywSRPwPut8ExoeN5sOvkAJfxDamyMjj8yKIrdJ0d8NzmHxygzNV1KPJCPhKZoVHHO4NFo0JlZfF2//vbaaeiK3R/hYYt9kYfsJ/jaXGNA6xdk13LCcvecmvXZl8BVq/O/HtJJpXuIt6fsL9YgAuXhoFupU0PWAB6ST2S2zj5tXhRdvd2s319UJYsTuFnWYuy+V58n5KZMLOsyPYU9InMGujjAxaALsa9C/wzp4ny6OknsxvSeOqJcAyJrF3j8+rL3Rm/3vfhmaey+17++Eg4fha59rcXMv85h9CrXYx9f6BPbH2oU/l9zuLk2WOPdrKsNbOK3tMDd/82GXCizN0xc4vLuLTNejjzn8MGv7otQTJZ3JcB77/Xyyuzi6cAiMr9W/vcVguAT+S+3MTJv44O5YrL1mX02ltu6uD998LT7b33zmRGD8okEsrll2b2M+ivpTnFD69qH/wLC9gVl67L+lIrRDQFQy8AnYz9AHgjJ5EcuPN/E9x+69DePZ/7SzeXX/phjhJlJpWCkz+3mpbm9K/lUyn46llrmP9OMIXsxhnt/O7u8PSKgnTbzQn+7w+drmMESF/upH7h1j67zdkOoluvHIXowm+s5Zqr2kml0Xbu/k2SE49eRU8In0pduiTFwfu3pdUTWL3K5/PHreLB+4P7o/Z9+MqZa7j+mvR+loXA92HGte1cdP5a11ECpdvo/gNs815HlOYJInwA5PfxrBzbZbcyvvv/qjnymCqGj9j4I+jsVP76525+NqOd558N/zWg58Epp0c5+5w4U/ctx+tXzhctTHH/vUlumNHBmixu/Q1mtyllfOviao49oYphwwvv1lkyqfzpsS5mXNdejAuQ9KK92yeY0Ly1Lxj0NxaT5seBIwKNFRLl5bDDx8oYM8Zj9WqfRQtSJBKFOcA1ssZj/IQI8biwZHGKpqX5fWuORGDHSX0/y4oCmSzU2pJiwfspOjsL83c+OHkkofXHb/MrBjtElObPivBAcKGMMXmhenyCxm3O6UmjVGtZTFoWA/UBxTLG5F5rQusngGzzuiaNR56kV0V+G1QqY0weCL8arPFDWgUAfL/3dqBYL5SMKTbq+5E70vnCtApAF+Pfgy0XEzDGhJHMWj+PZ1Bpr3rgqfeTzAMZY/LFV9Juq0O6XxOT5jcAWzbcmPB6LaEN+6T7xUNa90iUnw49jzEmX1R1xlC+fogzNrQ8Ji3vA+OH9jpjTB4sSmj9TiBpP/QxxJUPpUdUbhpqKmNM7qlyw1AaPwy5BwDQGo+J/z4wduivNcbkSEtC2Wmgdf+2JYO1j+s6VPnR0F9njMkVVb1mqI0fMuoBACyoiknlfGBcZq83xgRHmhPauxOMH/IiDRnufjCxE5XrMnutMSZQqldn0vgh4x4AwNyKmNTMAyZmfgxjTJYWJXT1zjA5owUsstj/aHK3qFyV+euNMdkS5bJMGz9k1QMAUIlJy2xg3+yOY4wZOp2d0IZpIBk/qJflDoiiqv6F2JOCxuSbqnoXZNP4IesCAEnG/U2EollC3JiCINyZpP6V7A8TgChLx4l484B4EMczxmxTQlV3SdK4JNsDBbIJepJxS1G5PohjGWMGofwwiMYPAfUA+sytiEnN34HdgjumMWYzcxK6emo2I//9BdID6DO5W9U7GyieTZWMCRdfVb8WVOOHQAsAJKmbjeitQR7TGNNHhJ8naXwp0GMGeTCAUbQN75SuN7E1A4wJ0uKYlk9ZyZjsd3jtJ9AeAMAqaj9E9RtBH9eYEqaofD3oxg85KAAACRofRZiZi2MbU3KEWxPUP5abQ+dMazwq/usC/5a7cxhT9N5OKFMzedY/HTnpAfSp6xDlFCD82+waE049qJyRq8YPOS0AkKDhDRR7YtCYDIjKpQnqX83pOXJ58D7qRaXlzwIH5/5cxhSNpxNa/xmQnM6ryWkPoI/4nkb+A2jK/bmMKQpLPJVTct34IS8FADoYu0zV+zw2HmDMYHpU9eR26lfk42R5KQCwfpagyrfzdT5jCpJyXpLGF/N1ujyMAWwq5rXcgepZ+T6vMWGnwp1Jv+H0fJ4z7wUAmmMx4XngE/k/tzGh9WpCuw6EiZ35PKmDAgAxVtQjPbOBCS7Ob0zILBQt27+D7VrzfeK8jQH0l2BMi6dyJLDGxfmNCZEPRb3jXDR+cFQAANqpf8tT+Sx2Z8CUrh5R/XwHdXNcBXBWAADaqf8Lql93mcEYV0TlnA4an3KZwWkBAEjQeAcqV7jOYUxeKZd1UP9r1zGcDAIOJOq1XCeql7jOYUyuiXBDh98QijkxoSkAAHGv+aeqfMt1DmNyRvQXCb/xPNcxNghVAQCVmNdyG8qXXScxJnDCbxN+/Vn5mOOfrpAVAACNxL3Wu1X1i66TGBMUEbmvw687DSTlOkt/zgcBtySpDr/uVETucJ3EmCCocFeHX/elsDV+CGUBAJBUwq/7sgg3uk5iTFaEW5J+/Rkgva6jDCSkBQBAtMNvuBDRq10nMSYTKvKjhN9wbpiu+TcXwjGALcVo+W8rBKagKJclaLjGdYzBFEQBAIjTdJaK/BIod53FmG3oRTkvQcMvXQdJR8EUAIA4Sz+t4j0AjHCdxZjNKazzlJM6aHjCdZZ0FVQBAKimZbIv+kdge9dZjOmnSdQ/uoNx/3QdZChCPAg4sHbq56K904DXXWcxZr1XRcumFlrjhwIsAAAJJjQntGs6wq9cZzGlTYW7EsrBrp7nz1bBXQJsLkbzOQg/BypcZzElpUuVS5I0FPRclYIvAAAxmqciPIAtMWbyo0nV+3ySutmug2SrIC8BNpeg4TXRsv0U/uo6iyl6T3sqHy+Gxg9F0gPYSCVKy/ki/Bi7JDDB6kH1mgQNV4d5Zt9QFVkB6BOjeaoKd9nW5CYICvNEOTVBwxuuswStKC4BNpeg4bWkpj4uwk2us5jCpsKdSfWmFmPjhyLtAfQXo/UYxL8ZGO86iykoi1H5eoL6x1wHyaWi7AH0l6BuVkLZRUV+BITueWwTOj7CbTEtn1LsjR9KoAfQX5Sl+4t4M4HJrrOYUHpT1ftKsYzwp6OkCkCfuRUxRl2C6PeAmOs0JhQ6UK5JUH89SI/rMPlUggWgT5QljXiRa0U5jRL+OZQ4FeEPKZ/vdNKwyHUYF0r+Dz9Gyz6I/gyY5jqLyavXVPXCJI0vug7iUskXgD4qcVq/pH2rDtljxsVtoSj/1UH9PSDqOoxrVgA2oeUxWs5CuBxodJ3GBGqpKjOSdNwKk7omr71IAAACIElEQVRchwkLKwADmlsRo+ZMRK4AbXCdxmRlhaj+pIPuG2Fip+swYWMFYJuaY1H4mggXYE8aFppFqtyQJHUbjE+6DhNWVgDSol6M5qMRLgX5pOs0Zpv+ISo3dFB3T1jX4g8TKwBDFKV5uudxviqfBSKu8xgAFPgzqjclaHzUdZhCYgUgQ1Gaxntwioqci10euNKiIr/1fW9mF2Pfdx2mEFkByJp6cZoPwZNzVDkRKHOdqMj5wDOqcluSuodKbeZe0KwABCjKkkaPspNV9CRgH9d5iogCr6jye6H3vgQTml0HKhZWAHIkSvME4EQRvkDfLEP7WQ/dW6jen8K/u4vx812HKUb2R5kHlSzZySNyrAhHAAcCVa4zhVQSeE6VJ5TII52M/cB1oGJnBSDvlkTjeAf4nneoqB4K7O06kWMfIDytvjwdp+yJlYxZ5zpQKbEC4FiMFfXQPVU97wBRnU7f2EGxLmiaAt5BeEF8eTEFz3VSv9B1qFJmBSB0WuPVsJ/i74vHHqpMAXah8HZF7gF5W0Xf9Hz9l+C90o68AnUdroOZjawAFAQtj7N0V4hMUY8pgkxU9XcAmQiMdRyuFXShiLdQ0QXi8yZ4czoYO89u0YWfFYCCtyRaTdlEH3YQ/LHg1foeYwStRakVqFWoYePqR8Ppm8FYDlSv/1g70ENfF/3D9R9LCKxWaENoU2Sl57MS/DbFW+ahC9pJLbR59oXt/wMUtUxD2JBjqQAAAABJRU5ErkJggg==;" vertex="1" parent="1">
          <mxGeometry x="120" y="206.5" width="40" height="40" as="geometry" />
        </mxCell>
        <mxCell id="HV5D_f1Mmfy7SxoI7Yci-16" style="edgeStyle=orthogonalEdgeStyle;rounded=0;orthogonalLoop=1;jettySize=auto;html=1;exitX=1;exitY=0.5;exitDx=0;exitDy=0;entryX=0.75;entryY=1;entryDx=0;entryDy=0;dashed=1;shape=link;" edge="1" parent="1" source="HV5D_f1Mmfy7SxoI7Yci-14" target="HV5D_f1Mmfy7SxoI7Yci-5">
          <mxGeometry relative="1" as="geometry" />
        </mxCell>
        <mxCell id="HV5D_f1Mmfy7SxoI7Yci-14" value="" style="shape=image;verticalLabelPosition=bottom;labelBackgroundColor=default;verticalAlign=top;aspect=fixed;imageAspect=0;image=data:image/png,iVBORw0KGgoAAAANSUhEUgAAAQAAAAEACAYAAABccqhmAAAACXBIWXMAAAdhAAAHYQGVw7i2AAAAGXRFWHRTb2Z0d2FyZQB3d3cuaW5rc2NhcGUub3Jnm+48GgAAIABJREFUeJzt3XmcXFWZ//HPc6u3quosnU5IL0kgQhggYVECSMgAIiD74oLDIsugqIiAguIPZthUQIkiOAISZFRWRRiWCAiIshpWlxAIBMjaS5bOQrqreqv7/P7ohHSSTrq66ladW1XP+/Xi9QrdXfd+ezlPnXvuuecIpsAtr64mtb2PTITUWIHRvsdowatFqQWtVagVqAAEGLn+hRVAfP2/O4Du9f9eDaDQLdAG0obQpvhtns9KhZUQWeahC9qRhVDXkc/v1gRLXAcw6ZhfGSO2m+Dt7nv+FFGZCOyw/r/RTqPBCmAhsEhFPvB85ir+nARr5sLk7kFeaxyzAhAyo1kxLEn3J0Gm4smeqro7sDNQ5jrbEPUC74rIHHz9J+irUSpeXsmYda6DmY2sADgWY3GDUn6A5+l0VfYG9gXKXefKkRTwDsIL4suLAq+3Uz/XdahSZgUg75pjcXSa73mHonq8wC6uEzm2AOEp9eXpKiqfXM2ota4DlRIrAHkwjOZdfORYX/wjBJlO3wCc2VKXIi94yhO9pB7pYty7rgMVOysAOVJFyw6CHi/CF4ADXOcpUG+hen8E7l1H4zuuwxQjKwABqqJ5+wicosJJwF6u8xSZN0T19z5yb5KGxa7DFAsrAFnTSJzmT+HJOaqcSOGN1hcaH3hGVW5LUvcQSI/rQIXMCkCGKlkyyfPKzhbVM4GxrvOUqGUi/E58uc3uJmTGCsAQRWmeLqKXgByN/fzC5EVUf5SgYRaIug5TKOwPOC1aHqX1BBG9mL779Ca8/olyc4Ku38LETtdhws4KwDYtr47Tc66KdwFog+s0ZkiWisqNHcgt9rzC1lkBGND8yhjxMxCuAupcpzFZWSmqMzrwb4LxSddhwsYKwCbmVsSoORORK+wdv+gsF9WfdtB9o10abGQFAAD1YjSficiVwHjXaUxOLRaVyzuouxPEdx3GtZIvAFFa9xNJ/Qzkk66zmLx63Ve+1UnD866DuFSyBSDK0nF43jWinEYJ/xyMzvI1cn4ndQtcJ3GhBP/wF1TFvMpLUb4DVLlOY0IhgcqPE7RfB5O6XIfJp5IqAFGaDhCRmcCurrOYMJL3POWcdur/4jpJvpREAahh1Yhur/NqVc4DPNd5TKgpwswqv/I7q6j90HWYXCv6AhCj6ThEbgYaXWcxBWUp6n09Qd0s10FyqYgLwJJo3Itcp8r5rpOYwqXCnUm/7FzYrt11llwoygIQo2UfEb1L+xbTNCZbC1T1tCSNL7kOErQiux7WSJymSxB9wRq/CdBEEXk2RtOVoBHXYYJUND2AGIsbkLLfAdNdZzHFS+Gvnpad3MF2ra6zBKEoCkDfM/r8Hqh3ncWUhOWeyn8Uw+3Cgr8EiNF8jgjPYI3f5M92vuiTcZoucR0kWwXcA1hQFfMqbkHlTNdJTOlS4Z6kz1egIeE6SyYKsgBEWdIoEpmFrbxrwuENtPfYBBOaXQcZqoIrAHFad1fxZwETXGcxZiNpRv1jEjT+3XWSoSioMYA4TYep+C9gjd+EjjYg8lyMlqNcJxmKgikAMZrOVpE/AsNdZzFmK6oRfThGy9ddB0lXQRSAmNd0FSK3U7y75priUYbozTFaLncdJB0hHwNQiXot14tykeskxgyVil6f9BsuCfM+BSEuACoxr/VGVL/pOokxGRN+mfDrzw3r+oMhLQAaiXmtM1E9y3USY7LVN1eg/gyQXtdZNhfCAqCRuNd8j6qc5DqJMUERkd91+HWngqRcZ+kvZIOAKjGv5ZfW+E2xUdUvxryWO0BD1eZCFEYl5rX8AuVs10mMyQnl9JjX/HPXMfoLTQGIeq3XoRTM/VNjMqJybtxrvsF1jA1CUQBiXtNVovpd1zmMyQdVLozR8t+uc0AIBgFjNJ29fpKPMaVF5dwE9be4jOC0AMRpPkKFR4EylzmMcaRHlGM6aHjSVQBnBaCa1il+34M9I1xlMMY1hXWe+v/ewbh/uji/kwKwfv2+2dhOvMYANKn6n0wybmm+T+xgELA1jpT9EWv8xmzQKOI9BEui+T5x3gtAzPNvxlbyMWZze0e9yMx8nzSvBSBK84Uop+fznMYUClFOjdHyjbyeM18nitI0TUT+AlTk65zGFKAeX/l0Jw3P5+NkeSkAcZbXqaReB23Ix/mMKXCtaO/e+VhkNA+XABpR6b3fGr8xaatTKbs7Hw8O5fwEMVovxbbrMmZIBA6O05Lz6fE5vQSI0TwV4SVsLT9jMtGr6k1PUvdyrk6Qwx5Aa1yEu7HGb0ymykT0LlhenasT5KwAxDy9ybboNiZbulPM652Rq6Pn5BIgRtNxiDyci2MbU5LUOzZB3aygDxt4ARhF2/BO6ZoLjAv62MaULmmu1MrdVjNqbZBHDfwSoNPr+jHW+I0JmDZ0eV0/CPqogfYAqmg+0BP+GvRxjTEA+KoclKThhaAOGGAPYH6lJ9yKNX5jcsVDuB3mVwZ3wIDEvPhlwK5BHc8YsyWBf4tRHdgEoUDeraM0jReReUAsiOMZY7Yp6Su7dtKwKNsDBdIDEJGfYo3fmHyJisc1QRwo6x7A+sd8XwjiWMaYtKkqB2Y7IJhlD0A9EbkRa/zG5JuIcGO2Twxm9eI4zWcAU7M5hjEmY5+I03paNgfI4p17fmVM4vOxxT2NcWlxQjt2hkldmbw44x5AlPhXscZvjGsTYlT/Z6YvzrAHsKAqJpXvAY2ZntgYE5iWhKZ2hPHJob4wox5AnKrzsMZvTFjUR4mck8kLM+gBtMZj4n8AbJfJCY0xOdGaUHaEhsRQXjTkHkCc1HlY4zcmbOqi8LWhvmiIPQAtj0nLB9jjvsaE0dKE1n8MpCfdFwypBxCn9RSs8RsTVuPitHxhKC8YUgFQ0QuHlscYk08qfBc07Z592gUgTtNh2KaexoTdntW0HpzuF6ddAFTkooziGGPyyhdNu62m1VWoZMmkiETeSffrjTFOaUojk7oY+/5gX5hWD8Dzyr6MNX5jCoVEvFRa04PTaNRaFpOWxUB9lqGMMfnTmtD6CYPdEhy0BxCl5Xis8RtTaOpiNB812BeVDfYFInwlmDzGDG7YcGH0aI/hIzyqqoSKSmhfpySTyupVPstafdcRC4fwZZRt7tC1zUuAKpq394QPyMM24qb0TNq5jP2mlTPtgAp22a2MHXcqY/SYbf+pJZPK4oUp3prby2uvdvPayz28MruH7m7NU+qCklJNbZ9kfNPWvmCbBSBG86UIPww+Vzg0NEbYfc++P7rVq5T57/Yy/51e17GGLBKBvT5RzoTtI1RWCS3NKV5/tYf2deFrFHvvU87nT4py4heqGD8hEsgxP1yrPPWnLh5+MMmjD3VZMehHVL7TQf1WNxfddgGQ5r9ThJN/jjymkksuG8bUfcuRzX4C89/p5YYZHdz16wSplJt86Rox0uOi78Y54+zYFu+cXV3K47O6+P4V65j3ltuiVlkpnHRKlPO/FWe3KYNedWZlxXKfu36d4Bc3JWhpDvkvMD9eTWjDvlv75FYLQCVLd46I905uMrlRWSn8zy9HcMrp0UG/dvZL3Zz8udUsXxbOa8499irn/odrGDd+2++iqRRc+V/r+OmP2vOUbKNIBM7+aozv/dcwxtbl9yoymVRuvzXBjOvaWbkinL/DfElpZKetzQnY6m8lQuSLuYuUf5EI3POHmrQaP8Anp1Xw2NO1DBsevukPe368nKefrx208UPf9/39a4dxwcXxPCTb6N8PquCl10dzw/+MyHvjB4hGhW9+K84/3h7DaWdGt+jplZIyej+/tc9t/TcjOqSnisLu25dUc8TRQ9tSbdfJZdz4ixE5SpSZaFS494Ea4vGh/UV//9rh7Ld/RY5SbVRRIVx7/XAef6aWKXuU5/x8g6kZ5fHLO0by0GOjqB1dmmPZKnLS1j434F/RMJp3SQlv5y5Sfo2q9Xjr/e0yejdXhen7rOQfb6T9iHVOXXBxnGt+PDyj1774fDeHH9QWcKKNtt8hwt331/Dxvd03/IEsWZzi5M+t5u+vh+N3mU8pTU3qYvx7m398wJLoo8flPlL+HP/Zqoy78iJw8mnpXTbkw2mnZ74D2wH/XsFOk3IzCLfblDKeeq42tI0fYPyECE8+W8shhwW2uW7B8IgcO/DHB+CLHJHbOPl14MHZdX0/9elw/MGMHuNlPYo+/aDgLwOmTa/gz8+PpnFcMLf1cikWE37/UA2HHRGO32m+iPCZgT4+QAFojQtMy3WgfEpnsGzbrw/HtWO23wfAuIAb6YTtI9z7QA3DRxTOKFs0Ktz3YA1T9w1vbyUHDoLmLbqPW/xlx0gdChRVeRzqgNnmqoeFowBUV2ffyKqHBdtQb7plxKCz98KoqqpvMLWuvvCyZ6gqhhy8+Qe3/O694ur+m9zZfc/ygu5KNzRGuOPOmpK5RSiebnEZsGUBUKwAmLR85qjCbfwbHHRIBWd+OfOB1YKiHLn5hzYpAFW0TgR2yFceU9h23yO303rz5ZofDy+JOQIKk6Is3WRV702+6wj+AfmNZApZJFIcfefhI4QLL8rvTEl3IpsM8G9SANQrrtF/k1urVxXPHPuvnhcvyMHMofI83eRNftPvWK0AmPTN/lt3oMeb/04vN/2kgxOOWsXkHZdTN7KVERUt7Ni4jH33XMGZp6zhzv9N5GRRkHhc+NJZxT8WoMomBeCji7hRtA3vpGtK/iOZQvXk410kEkoslvmlgO/Dg/cnue4H7bw9d+DHlltbfFpbfObO6eX++5JUVHzIGWdHufh71YHMjdjg1C9FueHH+X9qMs/2hOXVsF079OsBdNH1SSD8U7lMaKxY7nPbL4a0Ge0mnn+2m/0/sZIzTl6z1cY/kO5uZeYtCfbZYwWPPdqZ8fk3t+vkMvbYq+gnB5VV43+0PsBHBUBhqps8ppD94Mp1vP7q0B6uUYVrr27nqE+38ea/Mn8w58O1yhdPXM3tt2ZehDb3qUNz/8SkazpQARBP9nATxxSyZFL5wvGreGV2eg25q0v52tlr+MGV6/ADuJT3fbjo/LU8+0ww4xEHHlT4cxsG43vsvuHfG3sAqlYATEaWtfocftBKfvSD9m2uQ/jaKz0cdmAbd/06Gej5e3vh7NPXkExmvxbgfvsX/SUAohsLwPpBwPmVwCRHeUwR6OmBqy9fxw0z2vmPU6N8fP0ipcmk8u68FE881skLz3WjOVqvs6U5xcxbEpz/7ezu59eM8qgd7dG2snhucQ5gF5hbAZO7ywBixCeTxh4Bxgxm3Yd9A3Qu3Po/HVkXAOhbrrxtZbC3OEOmPE7tv3XAHA9AsOt/U/gWLUzx7rzsV0BuHFf8E4LA3wPWjwH4nr+b2zDGBOPZv2T/zh2vLv4CoB6TYX0BEJWJbuMYE4ympuz3Aghi3YWwE/ra/IZSt4O7KMYEJ4h9HCIlMB1O1d8BrACYIpNKZX+bYc2aUtha7KMewPJqYLTjNMYEoq4++7fvNauL+hbgBttBc8yrpq8rYEwxaGiwApAmqYbtPd+6/6aITJue/Uy+eW8X3g7RmfCRiR749a6DGBOEMdt5WW9H1tris2J5SfQAAL/OE6h1HcOYIJzwuaqsV/id88/S2TZM8Go931MrAKbgicDXvpH9NOCXXizqKcCb8D1qPbE7AKYIHPqZSnbZLfvHWWY9HNwCI2En6GgP9awHYAqa58GVPxiW9XE+eD/FW2+WxgAgAEptGdglwGA8D2Y9Ocp1DEaMLP456pk4/T9j7PWJ7Ef/H34g2HUKwk6gtgwY6TpI2InApw4t/pViClF9Q4TvX5v9u7/vw69uc/MYsysKNR5Q5TqIMZkQgZtnjmBUbfY9o1kPd7Lgg+wfJCokApUeUPyrIJqidMHFcQ4/Mpie2c0/7wjkOIVErQCYQnXQIRVc9cPhgRzr+We7ef6vpXP7r59KD7CLW1NQJu1cxp331VAWwCJ2vg/fu+jD7A9UmCqsB2AKSn1DhIefGBXYbr53/ybBP94ondl/m7FLAFM4RtZ4PPLEKLbfIZgVO9au8bnqv4t+K7BtqbQby6YgRKPC/Q/XsNuU4Bav/vb5H9LSXFoj/5vzgJIc/TCFo6JCuOcPNUybHlxn9aEHOrnvrtKa+DOALisAJtTKyuA3944M7HYf9O1kdP7X1wZ2vALW5QFdrlMYM5BIBGb+eiTHnRjcXLWeHjjjlNXFvvNPurqtB2BCSQRuvHkEJ50SDfS4F1+wtlTv+Q/ELgFM+IjAT38+grO+Egv0uDNvSQS6lXihk/UFoHQegDYF4Zrrh3POucE2/mee6uI7F9p1f3+6vgCsdh3EmA2u+P6wQDb47O/Vl3s4+XOr6SnZ+T4DE1hVBtIGpbARQuZ8H447YpXrGEzZvYzrfhLM/PcwOv/bcb57WXWgx5w7p5cTj15Fe7v9jW9Ooa0MYaW1/21Thb887f5mSU938f6ivvmtONfOCLa4vTe/l2MOb2P1KhvxH5Cw0lP8Ntc5TGk7/T9jgTf+xYtSHPeZVYHsFVisFNo8z8cKgHHmlNOj/OK2EVkv593f4kUpjvhUG4sWlvY038F4vrR5ilgBME6c8Lkqbrl9JF6AT6QsWZziyEOs8afHb/NAWlzHMKXnmOOr+PU9wTzTv8GSxX3v/AsXWONPh+K1eh6yyHUQU1oOOayS39w7kvLsF/L9yNIlfe/81vjTF0EXeO2wwHUQUzqmTa/gvgdrqKoK7qJ/Q+MvtUU9s6TrYLEHdR3AStdpTPHbb/8K/u+Po4jHg2v8TUv7Gv8H71vjH6Jl0JDYMPyy0GUSU/z22KucB2fVUD0suMa/rNXnmMNXWePPiC6EvgVBwAqAyaHJu5fxx6dGMbImuOH+5ct8jvx0G+/OK6GtvAIkIgtgfQFQkQ/cxjHFatLOZTz6p9pANu/YYEPjf+dta/yZ0vVjfx6A5zPXbRxTjD62Y4THnxnF2LrgGv+K5X2Nf95b1vizob6+CR9dAqT+5TKMKT7jxkd49Mla6huCWcEXrPEHKUJkDqwvAB0k3wbsYUkTiO3Gejz6p1HsMDG4xr9yhc9Rh7bx9lxr/AHobqftXfioBzCpC5jvMJApEqPHeDz+51p23iW4KX4bGv9bb1rjD4bMg8ndsPEuACJilwEmKyNGejz8+Ch22S34xj93jjX+oKjonA3/3jg646sVAJOxYcOFR/80ir0+Edz83jWrfU44apU1/oB5/kAFAH3VRRhT+GIx4Q+PjGLvfYJr/GvX9E3y+fvrNjQVNMF7ecO/PyoAHZTPBqzUmiGJRvsa//QDg9u1xxp/TvW2E3ltw//06wFs1w7MGeAFxgyookK46/c1HHRIsI3/2M+s4o3XrPHnyN/Xt3UANh2tEX0JlY/nPZIpOGVl8Nv7RnLE0cFt2QWwapVy1Q+HBXrMrVmxwmfe2708/GBnycwtEOHF/muAblIAxJeXVPhGvkOZwiICt/3vSI49IbgtuzaY+LEIEz8W3PyBdFx+9TAe+b9OvnPhhyxdUtwPFvm+vNj//zeZo5mCFzFmEBdcHOeLpwa7ZZdrx51YxbOzR7PHXgGuUhJKvX/r/3+bFIBOGhZhC4SYbahviHDZFfnpoudbXb3HHx6pYbuxAS5SGCIC7yYZ39T/Y1t+p8ITeUtkCs7Z58SIxQJcwjdkGsdFuOL7xVngEB7f/ENbFgBfrQCYrTrymGAH/cLotDNjjB5ThL0Af8s39y2+ywSRPwPut8ExoeN5sOvkAJfxDamyMjj8yKIrdJ0d8NzmHxygzNV1KPJCPhKZoVHHO4NFo0JlZfF2//vbaaeiK3R/hYYt9kYfsJ/jaXGNA6xdk13LCcvecmvXZl8BVq/O/HtJJpXuIt6fsL9YgAuXhoFupU0PWAB6ST2S2zj5tXhRdvd2s319UJYsTuFnWYuy+V58n5KZMLOsyPYU9InMGujjAxaALsa9C/wzp4ny6OknsxvSeOqJcAyJrF3j8+rL3Rm/3vfhmaey+17++Eg4fha59rcXMv85h9CrXYx9f6BPbH2oU/l9zuLk2WOPdrKsNbOK3tMDd/82GXCizN0xc4vLuLTNejjzn8MGv7otQTJZ3JcB77/Xyyuzi6cAiMr9W/vcVguAT+S+3MTJv44O5YrL1mX02ltu6uD998LT7b33zmRGD8okEsrll2b2M+ivpTnFD69qH/wLC9gVl67L+lIrRDQFQy8AnYz9AHgjJ5EcuPN/E9x+69DePZ/7SzeXX/phjhJlJpWCkz+3mpbm9K/lUyn46llrmP9OMIXsxhnt/O7u8PSKgnTbzQn+7w+drmMESF/upH7h1j67zdkOoluvHIXowm+s5Zqr2kml0Xbu/k2SE49eRU8In0pduiTFwfu3pdUTWL3K5/PHreLB+4P7o/Z9+MqZa7j+mvR+loXA92HGte1cdP5a11ECpdvo/gNs815HlOYJInwA5PfxrBzbZbcyvvv/qjnymCqGj9j4I+jsVP76525+NqOd558N/zWg58Epp0c5+5w4U/ctx+tXzhctTHH/vUlumNHBmixu/Q1mtyllfOviao49oYphwwvv1lkyqfzpsS5mXNdejAuQ9KK92yeY0Ly1Lxj0NxaT5seBIwKNFRLl5bDDx8oYM8Zj9WqfRQtSJBKFOcA1ssZj/IQI8biwZHGKpqX5fWuORGDHSX0/y4oCmSzU2pJiwfspOjsL83c+OHkkofXHb/MrBjtElObPivBAcKGMMXmhenyCxm3O6UmjVGtZTFoWA/UBxTLG5F5rQusngGzzuiaNR56kV0V+G1QqY0weCL8arPFDWgUAfL/3dqBYL5SMKTbq+5E70vnCtApAF+Pfgy0XEzDGhJHMWj+PZ1Bpr3rgqfeTzAMZY/LFV9Juq0O6XxOT5jcAWzbcmPB6LaEN+6T7xUNa90iUnw49jzEmX1R1xlC+fogzNrQ8Ji3vA+OH9jpjTB4sSmj9TiBpP/QxxJUPpUdUbhpqKmNM7qlyw1AaPwy5BwDQGo+J/z4wduivNcbkSEtC2Wmgdf+2JYO1j+s6VPnR0F9njMkVVb1mqI0fMuoBACyoiknlfGBcZq83xgRHmhPauxOMH/IiDRnufjCxE5XrMnutMSZQqldn0vgh4x4AwNyKmNTMAyZmfgxjTJYWJXT1zjA5owUsstj/aHK3qFyV+euNMdkS5bJMGz9k1QMAUIlJy2xg3+yOY4wZOp2d0IZpIBk/qJflDoiiqv6F2JOCxuSbqnoXZNP4IesCAEnG/U2EollC3JiCINyZpP6V7A8TgChLx4l484B4EMczxmxTQlV3SdK4JNsDBbIJepJxS1G5PohjGWMGofwwiMYPAfUA+sytiEnN34HdgjumMWYzcxK6emo2I//9BdID6DO5W9U7GyieTZWMCRdfVb8WVOOHQAsAJKmbjeitQR7TGNNHhJ8naXwp0GMGeTCAUbQN75SuN7E1A4wJ0uKYlk9ZyZjsd3jtJ9AeAMAqaj9E9RtBH9eYEqaofD3oxg85KAAACRofRZiZi2MbU3KEWxPUP5abQ+dMazwq/usC/5a7cxhT9N5OKFMzedY/HTnpAfSp6xDlFCD82+waE049qJyRq8YPOS0AkKDhDRR7YtCYDIjKpQnqX83pOXJ58D7qRaXlzwIH5/5cxhSNpxNa/xmQnM6ryWkPoI/4nkb+A2jK/bmMKQpLPJVTct34IS8FADoYu0zV+zw2HmDMYHpU9eR26lfk42R5KQCwfpagyrfzdT5jCpJyXpLGF/N1ujyMAWwq5rXcgepZ+T6vMWGnwp1Jv+H0fJ4z7wUAmmMx4XngE/k/tzGh9WpCuw6EiZ35PKmDAgAxVtQjPbOBCS7Ob0zILBQt27+D7VrzfeK8jQH0l2BMi6dyJLDGxfmNCZEPRb3jXDR+cFQAANqpf8tT+Sx2Z8CUrh5R/XwHdXNcBXBWAADaqf8Lql93mcEYV0TlnA4an3KZwWkBAEjQeAcqV7jOYUxeKZd1UP9r1zGcDAIOJOq1XCeql7jOYUyuiXBDh98QijkxoSkAAHGv+aeqfMt1DmNyRvQXCb/xPNcxNghVAQCVmNdyG8qXXScxJnDCbxN+/Vn5mOOfrpAVAACNxL3Wu1X1i66TGBMUEbmvw687DSTlOkt/zgcBtySpDr/uVETucJ3EmCCocFeHX/elsDV+CGUBAJBUwq/7sgg3uk5iTFaEW5J+/Rkgva6jDCSkBQBAtMNvuBDRq10nMSYTKvKjhN9wbpiu+TcXwjGALcVo+W8rBKagKJclaLjGdYzBFEQBAIjTdJaK/BIod53FmG3oRTkvQcMvXQdJR8EUAIA4Sz+t4j0AjHCdxZjNKazzlJM6aHjCdZZ0FVQBAKimZbIv+kdge9dZjOmnSdQ/uoNx/3QdZChCPAg4sHbq56K904DXXWcxZr1XRcumFlrjhwIsAAAJJjQntGs6wq9cZzGlTYW7EsrBrp7nz1bBXQJsLkbzOQg/BypcZzElpUuVS5I0FPRclYIvAAAxmqciPIAtMWbyo0nV+3ySutmug2SrIC8BNpeg4TXRsv0U/uo6iyl6T3sqHy+Gxg9F0gPYSCVKy/ki/Bi7JDDB6kH1mgQNV4d5Zt9QFVkB6BOjeaoKd9nW5CYICvNEOTVBwxuuswStKC4BNpeg4bWkpj4uwk2us5jCpsKdSfWmFmPjhyLtAfQXo/UYxL8ZGO86iykoi1H5eoL6x1wHyaWi7AH0l6BuVkLZRUV+BITueWwTOj7CbTEtn1LsjR9KoAfQX5Sl+4t4M4HJrrOYUHpT1ftKsYzwp6OkCkCfuRUxRl2C6PeAmOs0JhQ6UK5JUH89SI/rMPlUggWgT5QljXiRa0U5jRL+OZQ4FeEPKZ/vdNKwyHUYF0r+Dz9Gyz6I/gyY5jqLyavXVPXCJI0vug7iUskXgD4qcVq/pH2rDtljxsVtoSj/1UH9PSDqOoxrVgA2oeUxWs5CuBxodJ3GBGqpKjOSdNwKk7omr71IAAACIElEQVRchwkLKwADmlsRo+ZMRK4AbXCdxmRlhaj+pIPuG2Fip+swYWMFYJuaY1H4mggXYE8aFppFqtyQJHUbjE+6DhNWVgDSol6M5qMRLgX5pOs0Zpv+ISo3dFB3T1jX4g8TKwBDFKV5uudxviqfBSKu8xgAFPgzqjclaHzUdZhCYgUgQ1Gaxntwioqci10euNKiIr/1fW9mF2Pfdx2mEFkByJp6cZoPwZNzVDkRKHOdqMj5wDOqcluSuodKbeZe0KwABCjKkkaPspNV9CRgH9d5iogCr6jye6H3vgQTml0HKhZWAHIkSvME4EQRvkDfLEP7WQ/dW6jen8K/u4vx812HKUb2R5kHlSzZySNyrAhHAAcCVa4zhVQSeE6VJ5TII52M/cB1oGJnBSDvlkTjeAf4nneoqB4K7O06kWMfIDytvjwdp+yJlYxZ5zpQKbEC4FiMFfXQPVU97wBRnU7f2EGxLmiaAt5BeEF8eTEFz3VSv9B1qFJmBSB0WuPVsJ/i74vHHqpMAXah8HZF7gF5W0Xf9Hz9l+C90o68AnUdroOZjawAFAQtj7N0V4hMUY8pgkxU9XcAmQiMdRyuFXShiLdQ0QXi8yZ4czoYO89u0YWfFYCCtyRaTdlEH3YQ/LHg1foeYwStRakVqFWoYePqR8Ppm8FYDlSv/1g70ENfF/3D9R9LCKxWaENoU2Sl57MS/DbFW+ahC9pJLbR59oXt/wMUtUxD2JBjqQAAAABJRU5ErkJggg==;" vertex="1" parent="1">
          <mxGeometry x="510" y="201.63" width="40" height="40" as="geometry" />
        </mxCell>
      </root>
    </mxGraphModel>
  </diagram>
</mxfile>
